<svg width="356" height="306" viewBox="0 0 356 306" fill="none" xmlns="http://www.w3.org/2000/svg">
<path d="M34.0165 237.67C33.5641 237.369 33.0678 237.14 32.5451 236.991C32.2799 236.925 32.0014 236.934 31.7413 237.018C31.4811 237.102 31.2498 237.257 31.0737 237.466C30.9459 237.701 30.8789 237.964 30.8789 238.23C30.8789 238.497 30.9459 238.76 31.0737 238.994C31.3 239.481 31.6283 239.911 31.8433 240.398C31.9821 240.87 32.1639 241.329 32.3866 241.768C32.9054 242.358 33.5996 242.766 34.3674 242.933C37.7361 244.134 40.8665 245.919 43.6147 248.208C43.8682 248.447 44.1539 248.649 44.4636 248.808C44.9667 248.962 45.5008 248.986 46.0156 248.877C46.5304 248.768 47.0091 248.53 47.4065 248.185C49.1843 246.774 50.6199 244.978 51.6057 242.933C51.7397 242.722 51.8212 242.481 51.8434 242.232C51.8287 242.005 51.7545 241.786 51.6284 241.598C49.7268 238.361 46.3652 240.126 43.411 240.126C40.1187 240.143 36.8795 239.296 34.0165 237.67Z" fill="#FFBBAB"/>
<path opacity="0.18" d="M102.254 27.7303C68.785 58.2906 59.4698 106.565 36.3344 145.444C21.1108 171.058 -1.25484 195.733 0.11472 225.501C0.499554 233.832 2.79724 241.947 5.37789 249.882C8.30943 258.88 11.6937 267.856 17.104 275.62C31.1844 295.835 57.0702 304.777 81.6883 305.818C106.306 306.86 130.642 301.291 155.124 298.541C171.287 296.73 187.552 296.152 203.794 295.485C232.193 294.353 261.032 292.779 287.858 283.374C314.683 273.968 339.629 255.484 350.269 229.135C360.682 203.339 355.928 173.22 342.878 148.67C329.827 124.12 309.216 104.403 287.416 87.1532C270.076 73.435 251.751 60.7242 237.988 43.1576C228.265 30.7071 221.01 13.2084 205.956 6.15689C173.89 -8.77243 126.906 5.24008 102.254 27.7303Z" fill="#7F56D9"/>
<path opacity="0.18" d="M170.678 259.266C256.631 259.266 326.31 253.53 326.31 246.453C326.31 239.377 256.631 233.641 170.678 233.641C84.7255 233.641 15.0469 239.377 15.0469 246.453C15.0469 253.53 84.7255 259.266 170.678 259.266Z" fill="#7F56D9"/>
<path d="M183.228 199.922C182.974 202.09 182.197 204.165 180.964 205.966C176.119 214.534 170.686 222.944 163.171 229.328C152.124 238.677 137.659 242.695 123.691 246.476C124.948 245.864 126.442 239.424 126.996 238.009C128.128 235.236 129.09 232.44 130.132 229.656C131.773 225.253 135.225 221.733 138.575 218.473C146.169 211.138 155.393 205.707 165.491 202.627C171.245 200.888 177.217 199.977 183.228 199.922V199.922Z" fill="#7F56D9"/>
<path d="M183.228 199.922C182.974 202.09 182.197 204.165 180.964 205.966C176.119 214.534 170.686 222.944 163.171 229.328C152.124 238.677 137.659 242.695 123.691 246.476C124.948 245.864 126.442 239.424 126.996 238.009C128.128 235.236 129.09 232.44 130.132 229.656C131.773 225.253 135.225 221.733 138.575 218.473C146.169 211.138 155.393 205.707 165.491 202.627C171.245 200.888 177.217 199.977 183.228 199.922V199.922Z" fill="url(#paint0_linear_39_102108)"/>
<path d="M128.596 204.687C129.728 196.764 130.86 188.637 134.108 181.257C137.356 173.878 142.88 167.098 150.407 164.336C150.633 175.753 150.856 187.166 151.075 198.575C151.199 205.174 151.312 211.897 149.422 218.213C146.106 229.282 134.583 242.276 123.491 245.932C121.85 240.612 124.623 232.554 125.393 227.03L128.596 204.687Z" fill="#7F56D9"/>
<path d="M128.596 204.687C129.728 196.764 130.86 188.637 134.108 181.257C137.356 173.878 142.88 167.098 150.407 164.336C150.633 175.753 150.856 187.166 151.075 198.575C151.199 205.174 151.312 211.897 149.422 218.213C146.106 229.282 134.583 242.276 123.491 245.932C121.85 240.612 124.623 232.554 125.393 227.03L128.596 204.687Z" fill="url(#paint1_linear_39_102108)"/>
<path d="M160.433 247.506H253.314C259.14 247.506 263.863 242.783 263.863 236.957V218.462C263.863 212.636 259.14 207.913 253.314 207.913H160.433C154.607 207.913 149.884 212.636 149.884 218.462V236.957C149.884 242.783 154.607 247.506 160.433 247.506Z" fill="#7F56D9"/>
<path d="M160.433 200.42H253.314C259.14 200.42 263.863 195.697 263.863 189.871V171.376C263.863 165.55 259.14 160.827 253.314 160.827H160.433C154.607 160.827 149.884 165.55 149.884 171.376V189.871C149.884 195.697 154.607 200.42 160.433 200.42Z" fill="#7F56D9"/>
<path d="M160.433 247.506H253.314C259.14 247.506 263.863 242.783 263.863 236.957V218.462C263.863 212.636 259.14 207.913 253.314 207.913H160.433C154.607 207.913 149.884 212.636 149.884 218.462V236.957C149.884 242.783 154.607 247.506 160.433 247.506Z" fill="url(#paint2_linear_39_102108)"/>
<path d="M160.433 200.42H253.314C259.14 200.42 263.863 195.697 263.863 189.871V171.376C263.863 165.55 259.14 160.827 253.314 160.827H160.433C154.607 160.827 149.884 165.55 149.884 171.376V189.871C149.884 195.697 154.607 200.42 160.433 200.42Z" fill="url(#paint3_linear_39_102108)"/>
<path d="M149.207 247.506H242.088C247.914 247.506 252.637 242.783 252.637 236.957V218.462C252.637 212.636 247.914 207.913 242.088 207.913H149.207C143.381 207.913 138.658 212.636 138.658 218.462V236.957C138.658 242.783 143.381 247.506 149.207 247.506Z" fill="#7F56D9"/>
<path d="M138.656 171.365V189.871C138.655 191.257 138.927 192.63 139.456 193.91C139.986 195.191 140.763 196.354 141.743 197.334C142.723 198.314 143.886 199.091 145.167 199.62C146.447 200.15 147.82 200.422 149.205 200.42H242.086C243.471 200.42 244.842 200.147 246.121 199.617C247.401 199.087 248.563 198.31 249.541 197.33C250.52 196.35 251.296 195.187 251.825 193.907C252.354 192.628 252.625 191.256 252.624 189.871V171.365C252.625 169.981 252.354 168.609 251.825 167.329C251.296 166.05 250.52 164.887 249.541 163.907C248.563 162.927 247.401 162.15 246.121 161.62C244.842 161.089 243.471 160.816 242.086 160.816H149.205C146.407 160.816 143.724 161.928 141.746 163.906C139.768 165.884 138.656 168.568 138.656 171.365V171.365Z" fill="#7F56D9"/>
<path d="M160.433 150.119H253.314C259.14 150.119 263.863 145.396 263.863 139.57V121.075C263.863 115.249 259.14 110.526 253.314 110.526L160.433 110.526C154.607 110.526 149.884 115.249 149.884 121.075V139.57C149.884 145.396 154.607 150.119 160.433 150.119Z" fill="#7F56D9"/>
<path d="M160.433 150.119H253.314C259.14 150.119 263.863 145.396 263.863 139.57V121.075C263.863 115.249 259.14 110.526 253.314 110.526L160.433 110.526C154.607 110.526 149.884 115.249 149.884 121.075V139.57C149.884 145.396 154.607 150.119 160.433 150.119Z" fill="url(#paint4_linear_39_102108)"/>
<path d="M149.207 150.119H242.088C247.914 150.119 252.637 145.396 252.637 139.57V121.075C252.637 115.249 247.914 110.526 242.088 110.526L149.207 110.526C143.381 110.526 138.658 115.249 138.658 121.075V139.57C138.658 145.396 143.381 150.119 149.207 150.119Z" fill="#7F56D9"/>
<path d="M234.775 135.224C237.251 135.224 239.257 133.217 239.257 130.742C239.257 128.267 237.251 126.26 234.775 126.26C232.3 126.26 230.293 128.267 230.293 130.742C230.293 133.217 232.3 135.224 234.775 135.224Z" fill="white"/>
<path d="M221.306 135.224C223.782 135.224 225.789 133.217 225.789 130.742C225.789 128.267 223.782 126.26 221.306 126.26C218.831 126.26 216.824 128.267 216.824 130.742C216.824 133.217 218.831 135.224 221.306 135.224Z" fill="white"/>
<path d="M207.838 135.224C210.313 135.224 212.32 133.217 212.32 130.742C212.32 128.267 210.313 126.26 207.838 126.26C205.362 126.26 203.355 128.267 203.355 130.742C203.355 133.217 205.362 135.224 207.838 135.224Z" fill="white"/>
<path d="M234.775 185.105C237.251 185.105 239.257 183.098 239.257 180.623C239.257 178.147 237.251 176.141 234.775 176.141C232.3 176.141 230.293 178.147 230.293 180.623C230.293 183.098 232.3 185.105 234.775 185.105Z" fill="white"/>
<path d="M221.306 185.105C223.782 185.105 225.789 183.098 225.789 180.623C225.789 178.147 223.782 176.141 221.306 176.141C218.831 176.141 216.824 178.147 216.824 180.623C216.824 183.098 218.831 185.105 221.306 185.105Z" fill="white"/>
<path d="M207.838 185.105C210.313 185.105 212.32 183.098 212.32 180.623C212.32 178.147 210.313 176.141 207.838 176.141C205.362 176.141 203.355 178.147 203.355 180.623C203.355 183.098 205.362 185.105 207.838 185.105Z" fill="white"/>
<path d="M234.775 234.976C237.251 234.976 239.257 232.969 239.257 230.494C239.257 228.018 237.251 226.012 234.775 226.012C232.3 226.012 230.293 228.018 230.293 230.494C230.293 232.969 232.3 234.976 234.775 234.976Z" fill="white"/>
<path d="M221.306 234.976C223.782 234.976 225.789 232.969 225.789 230.494C225.789 228.018 223.782 226.012 221.306 226.012C218.831 226.012 216.824 228.018 216.824 230.494C216.824 232.969 218.831 234.976 221.306 234.976Z" fill="white"/>
<path d="M207.838 234.976C210.313 234.976 212.32 232.969 212.32 230.494C212.32 228.018 210.313 226.012 207.838 226.012C205.362 226.012 203.355 228.018 203.355 230.494C203.355 232.969 205.362 234.976 207.838 234.976Z" fill="white"/>
<path d="M320.503 198.303C320.275 200.466 319.521 202.541 318.308 204.347C313.463 212.915 308.019 221.325 300.515 227.72C289.468 237.058 275.002 241.087 261.035 244.856C262.28 244.256 263.786 237.816 264.34 236.401C265.472 233.628 266.434 230.833 267.464 228.048C269.105 223.645 272.558 220.125 275.919 216.865C283.514 209.539 292.738 204.12 302.835 201.053C308.564 199.303 314.513 198.377 320.503 198.303Z" fill="#7F56D9"/>
<path d="M320.503 198.303C320.275 200.466 319.521 202.541 318.308 204.347C313.463 212.915 308.019 221.325 300.515 227.72C289.468 237.058 275.002 241.087 261.035 244.856C262.28 244.256 263.786 237.816 264.34 236.401C265.472 233.628 266.434 230.833 267.464 228.048C269.105 223.645 272.558 220.125 275.919 216.865C283.514 209.539 292.738 204.12 302.835 201.053C308.564 199.303 314.513 198.377 320.503 198.303Z" fill="url(#paint5_linear_39_102108)"/>
<path d="M265.854 203.103C266.986 195.18 268.118 187.053 271.366 179.673C274.615 172.294 280.127 165.559 287.676 162.695C287.903 174.105 288.125 185.518 288.344 196.934C288.469 203.533 288.582 210.245 286.692 216.572C283.364 227.642 271.853 240.636 260.761 244.292C259.119 238.972 261.892 230.913 262.662 225.389L265.854 203.103Z" fill="#7F56D9"/>
<path d="M182.492 198.439C182.017 198.449 181.545 198.365 181.104 198.19C180.663 198.015 180.261 197.753 179.922 197.42C179.413 196.933 178.938 196.413 178.417 195.937C177.959 195.443 177.356 195.107 176.694 194.979C176.033 194.851 175.348 194.937 174.738 195.224C174.108 195.462 173.567 195.891 173.191 196.451C172.816 197.011 172.625 197.674 172.645 198.348C172.645 199.107 172.645 199.854 172.645 200.612C172.637 201.081 172.537 201.543 172.35 201.973C172.163 202.403 171.893 202.792 171.556 203.117C171.218 203.442 170.819 203.697 170.383 203.867C169.946 204.038 169.48 204.12 169.011 204.11H164.789C164.309 204.117 163.831 204.029 163.385 203.849C162.939 203.67 162.533 203.403 162.191 203.064C161.85 202.726 161.579 202.323 161.396 201.878C161.212 201.434 161.119 200.957 161.122 200.476C161.122 199.729 161.122 198.971 161.122 198.213C161.121 197.551 160.917 196.906 160.536 196.365C160.155 195.824 159.617 195.414 158.994 195.19C158.403 194.92 157.742 194.84 157.103 194.962C156.464 195.083 155.879 195.401 155.429 195.87C154.919 196.345 154.444 196.866 153.935 197.352C153.593 197.701 153.186 197.978 152.736 198.167C152.286 198.356 151.803 198.454 151.314 198.454C150.826 198.454 150.343 198.356 149.893 198.167C149.443 197.978 149.036 197.701 148.694 197.352C147.664 196.334 146.623 195.315 145.604 194.274C145.248 193.941 144.964 193.539 144.77 193.092C144.576 192.645 144.476 192.163 144.476 191.676C144.476 191.189 144.576 190.707 144.77 190.26C144.964 189.813 145.248 189.411 145.604 189.078C146.08 188.592 146.589 188.128 147.053 187.641C147.527 187.194 147.852 186.612 147.984 185.974C148.116 185.336 148.047 184.673 147.789 184.075C147.57 183.451 147.163 182.909 146.624 182.524C146.085 182.139 145.44 181.93 144.778 181.925C144.031 181.925 143.273 181.925 142.514 181.925C142.013 181.939 141.515 181.848 141.051 181.658C140.588 181.468 140.169 181.183 139.821 180.822C139.474 180.461 139.206 180.031 139.034 179.56C138.863 179.089 138.791 178.588 138.824 178.088C138.824 176.764 138.824 175.428 138.824 174.092C138.796 173.171 139.13 172.275 139.754 171.596C140.378 170.917 141.243 170.509 142.163 170.459C142.933 170.391 143.714 170.459 144.495 170.459C145.192 170.5 145.883 170.318 146.469 169.94C147.055 169.561 147.506 169.006 147.755 168.354C148.036 167.713 148.102 166.998 147.943 166.317C147.784 165.635 147.408 165.023 146.872 164.573C146.419 164.109 145.944 163.657 145.491 163.181C145.162 162.854 144.901 162.465 144.723 162.037C144.545 161.609 144.453 161.149 144.453 160.685C144.453 160.222 144.545 159.762 144.723 159.334C144.901 158.906 145.162 158.517 145.491 158.19C146.623 157.058 147.755 155.926 148.887 154.885C149.572 154.252 150.474 153.907 151.407 153.919C152.34 153.932 153.233 154.302 153.901 154.953C154.433 155.462 154.919 155.994 155.463 156.492C155.916 156.957 156.502 157.27 157.141 157.388C157.78 157.505 158.439 157.422 159.028 157.148C159.652 156.926 160.191 156.514 160.568 155.97C160.946 155.426 161.143 154.777 161.133 154.115C161.133 153.413 161.133 152.711 161.133 152.01C161.115 151.505 161.203 151.001 161.39 150.532C161.578 150.062 161.861 149.637 162.222 149.284C162.583 148.93 163.014 148.655 163.488 148.478C163.961 148.3 164.466 148.223 164.97 148.252C166.283 148.252 167.596 148.252 168.909 148.252C169.402 148.23 169.894 148.31 170.355 148.485C170.816 148.66 171.236 148.927 171.59 149.271C171.944 149.614 172.224 150.026 172.413 150.481C172.602 150.937 172.696 151.426 172.69 151.919C172.69 152.598 172.69 153.277 172.69 153.957C172.679 154.637 172.872 155.304 173.246 155.873C173.619 156.442 174.154 156.886 174.782 157.147C175.41 157.408 176.102 157.474 176.768 157.337C177.435 157.2 178.045 156.866 178.519 156.379C178.983 155.926 179.436 155.451 179.911 154.998C180.251 154.658 180.654 154.388 181.098 154.204C181.541 154.021 182.017 153.926 182.497 153.926C182.978 153.926 183.453 154.021 183.897 154.204C184.341 154.388 184.744 154.658 185.084 154.998C186.216 156.039 187.234 157.103 188.287 158.178C188.63 158.507 188.902 158.901 189.089 159.338C189.275 159.775 189.371 160.245 189.371 160.719C189.371 161.194 189.275 161.664 189.089 162.101C188.902 162.537 188.63 162.932 188.287 163.26C187.778 163.781 187.234 164.279 186.725 164.8C186.306 165.256 186.02 165.817 185.897 166.424C185.775 167.03 185.82 167.659 186.029 168.241C186.237 168.824 186.601 169.339 187.081 169.729C187.561 170.12 188.138 170.373 188.751 170.459C189.543 170.55 190.347 170.459 191.151 170.516C191.611 170.486 192.072 170.552 192.505 170.71C192.938 170.868 193.333 171.115 193.665 171.435C193.998 171.754 194.26 172.139 194.435 172.566C194.61 172.992 194.694 173.451 194.682 173.911C194.727 175.421 194.727 176.949 194.682 178.495C194.698 178.972 194.613 179.446 194.433 179.887C194.253 180.328 193.983 180.727 193.639 181.057C193.295 181.386 192.886 181.64 192.438 181.802C191.99 181.963 191.512 182.028 191.037 181.993C190.336 181.993 189.634 181.993 188.932 181.993C188.281 182.006 187.651 182.219 187.126 182.604C186.601 182.989 186.208 183.527 186.001 184.143C185.744 184.726 185.674 185.374 185.8 185.998C185.925 186.622 186.241 187.192 186.702 187.63C187.212 188.15 187.755 188.648 188.253 189.169C188.595 189.499 188.866 189.895 189.052 190.332C189.237 190.77 189.333 191.24 189.333 191.716C189.333 192.191 189.237 192.661 189.052 193.099C188.866 193.536 188.595 193.932 188.253 194.262C187.212 195.394 186.136 196.402 185.061 197.454C184.72 197.781 184.317 198.037 183.876 198.206C183.435 198.375 182.964 198.454 182.492 198.439V198.439ZM155.248 176.152C155.243 178.455 155.922 180.708 157.197 182.626C158.473 184.543 160.288 186.04 162.414 186.926C164.54 187.812 166.881 188.047 169.14 187.603C171.4 187.159 173.478 186.055 175.11 184.431C176.743 182.806 177.857 180.734 178.312 178.476C178.767 176.219 178.542 173.877 177.667 171.747C176.791 169.617 175.304 167.794 173.392 166.509C171.481 165.224 169.232 164.535 166.929 164.528C165.398 164.522 163.881 164.818 162.465 165.4C161.048 165.981 159.761 166.836 158.676 167.916C157.591 168.996 156.729 170.279 156.141 171.693C155.553 173.106 155.249 174.622 155.248 176.152V176.152Z" fill="white"/>
<path d="M112.226 195.1C110.527 195.866 108.972 196.919 107.63 198.213C106.96 198.86 106.432 199.64 106.081 200.504C105.73 201.368 105.564 202.295 105.593 203.227C105.763 205.49 107.381 207.324 109.079 208.807C111.037 210.516 113.392 212.304 113.55 214.885C114.942 213.855 116.199 212.621 117.636 211.67C120.149 209.961 123.103 209.045 125.865 207.777C128.627 206.509 131.354 204.721 132.656 201.982C133.379 200.248 133.793 198.402 133.878 196.526C134.157 194.531 134.211 192.511 134.037 190.505C133.845 188.485 132.961 186.594 131.535 185.151C130.475 184.269 129.274 183.572 127.981 183.091C126.758 182.482 125.436 182.099 124.076 181.959C122.549 182.022 121.073 182.521 119.821 183.398C118.569 184.274 117.595 185.492 117.014 186.905C116.448 188.422 116.708 190.131 116.153 191.636C115.497 193.459 113.799 194.262 112.226 195.1Z" fill="#FC682D"/>
<path d="M129.183 240.929C129.183 240.929 122.98 251.92 111.492 248.932C100.003 245.944 84.8475 232.271 84.8475 232.271C84.8475 232.271 69.5334 240.816 58.543 242.457L51.2085 243.929C50.1247 243.542 49.1967 242.812 48.5654 241.85C47.9342 240.888 47.6342 239.746 47.711 238.598C47.711 238.598 78.0224 221.122 81.0218 220.295C84.6043 219.206 88.4297 219.206 92.0123 220.295C96.6755 221.631 114.65 226.713 114.65 226.713L129.183 240.929Z" fill="#473F47"/>
<path d="M67.9258 192.597L77.5127 219.185L99.6973 221.12V219.185L79.335 217.034L70.3253 191.873L67.9258 192.597Z" fill="#7F56D9"/>
<path d="M114.933 179.016C114.514 179.718 113.654 180.148 113.382 180.895C113.11 181.642 113.699 182.774 114.027 183.702C114.491 184.992 114.344 186.441 114.797 187.743C114.875 188.026 115.032 188.281 115.25 188.479C115.456 188.618 115.693 188.707 115.94 188.739C116.903 188.946 117.891 189.007 118.872 188.92C119.064 188.876 119.265 188.904 119.438 188.999C119.51 189.06 119.569 189.134 119.611 189.217C119.654 189.301 119.68 189.392 119.687 189.486C120.249 191.945 120.21 194.504 119.573 196.945C119.37 197.749 119.132 198.722 119.732 199.299C119.941 199.493 120.2 199.626 120.479 199.684C122.335 200.137 124.124 198.756 125.38 197.318C126.5 196.028 127.465 194.611 128.255 193.097C128.494 192.674 128.662 192.215 128.753 191.738C128.779 191.116 128.69 190.495 128.493 189.905C127.964 187.879 127.642 185.804 127.53 183.713C127.395 181.031 127.587 178.235 126.557 175.79C126.256 174.94 125.688 174.209 124.938 173.708C124.036 173.281 123.031 173.12 122.041 173.244C120.094 173.312 117.955 173.583 116.631 175.009C116.246 175.394 115.442 178.145 114.933 179.016Z" fill="#FFBBAB"/>
<path d="M128.582 191.907C128.582 191.907 120.568 196.061 118.146 199.31C115.724 202.558 111.762 204.969 113.29 211.126C114.818 217.284 112.951 226.701 112.951 226.701C112.951 226.701 116.426 237.657 124.982 240.43C133.539 243.203 131.196 242.321 131.196 242.321C131.196 242.321 135.724 221.947 137.524 216.288C139.323 210.628 136.403 191.002 128.582 191.907Z" fill="#7F56D9"/>
<path d="M117.501 174.703C117.673 176.009 118.303 177.212 119.278 178.098C120.229 178.993 121.406 179.592 122.379 180.453C122.907 180.839 123.327 181.354 123.6 181.948C123.874 182.542 123.991 183.196 123.941 183.848C124.319 183.694 124.74 183.678 125.128 183.802C125.517 183.926 125.85 184.183 126.069 184.527C126.171 184.77 126.203 185.035 126.163 185.295C126.123 185.555 126.012 185.798 125.843 185.999C125.667 186.193 125.449 186.346 125.206 186.446C124.964 186.546 124.702 186.59 124.439 186.576C125.455 186.989 126.326 187.694 126.941 188.602C127.631 189.609 127.959 190.866 128.582 191.885C129.365 192.956 130.34 193.873 131.457 194.59C131.968 194.925 132.394 195.374 132.702 195.903C132.928 196.711 133.204 197.505 133.528 198.28C134.139 199.411 135.113 200.17 135.792 201.177C136.892 202.788 137.522 204.673 137.614 206.621C137.558 206.046 137.558 205.466 137.614 204.89C137.807 204.539 138.01 204.199 138.192 203.837C138.503 203.206 138.742 202.541 138.905 201.856C139.137 200.294 139.182 198.709 139.04 197.136C139.04 193.741 142.221 187.391 139.663 184.505C138.78 183.509 137.399 183.056 136.426 182.241C134.162 180.373 133.845 177.08 132.43 174.51C131.798 173.387 130.949 172.399 129.933 171.604C128.917 170.81 127.754 170.224 126.511 169.881C123.16 168.964 117.082 170.006 117.501 174.703Z" fill="#FC682D"/>
<path d="M125.503 202.469C125.503 202.469 120.432 216.164 119.436 217.183C118.44 218.202 129.193 224.234 129.193 224.234C129.193 224.234 136.199 210.924 135.871 205.151C135.543 199.379 129.442 197.036 125.503 202.469Z" fill="#7F56D9"/>
<path d="M129.182 222.367C129.182 222.367 128.808 226.781 123.398 226.702C117.988 226.622 99.3345 226.362 99.3345 226.362C97.6933 225.525 95.4522 225.377 94.2298 223.997C93.6525 223.34 93.3469 222.48 92.781 221.801C92.0092 220.973 90.9723 220.44 89.8495 220.295C88.725 220.133 87.5854 220.103 86.4539 220.205C86.2318 219.951 86.1094 219.625 86.1094 219.288C86.1094 218.951 86.2318 218.625 86.4539 218.371C86.9272 217.888 87.5342 217.557 88.197 217.42C90.9598 216.703 93.8944 217.11 96.3577 218.552C97.0554 219.054 97.8166 219.462 98.6214 219.763C99.225 219.882 99.8421 219.916 100.455 219.865C107.393 219.537 114.241 218.054 121.18 217.749C122.8 217.583 124.438 217.752 125.99 218.247C126.813 218.627 127.533 219.2 128.088 219.917C128.644 220.634 129.019 221.474 129.182 222.367Z" fill="#FFBBAB"/>
<path d="M205.662 86.7357C205.662 90.3379 204.231 93.7927 201.683 96.3399C199.136 98.8871 195.681 100.318 192.079 100.318H98.9379C95.3356 100.318 91.8809 98.8871 89.3337 96.3399C86.7865 93.7927 85.3555 90.3379 85.3555 86.7357C85.3555 83.1334 86.7865 79.6786 89.3337 77.1315C91.8809 74.5843 95.3356 73.1533 98.9379 73.1533H102.096C100.988 69.1773 100.814 64.9989 101.588 60.9446C102.362 56.8903 104.064 53.07 106.559 49.7822C109.054 46.4944 112.276 43.8282 115.973 41.992C119.67 40.1558 123.741 39.1993 127.868 39.1973H135.791C140.696 39.1923 145.507 40.5359 149.699 43.0811C153.891 45.6263 157.303 49.2751 159.561 53.6286C161.818 52.4674 164.322 51.8657 166.861 51.8742H168.91C173.179 51.8742 177.272 53.5699 180.291 56.5883C183.309 59.6068 185.005 63.7006 185.005 67.9693V68.6258C185.009 70.1581 184.792 71.683 184.36 73.1533H192.068C193.852 73.1518 195.62 73.502 197.269 74.1839C198.918 74.8658 200.417 75.8661 201.679 77.1275C202.942 78.3888 203.943 79.8867 204.627 81.5353C205.31 83.1839 205.662 84.951 205.662 86.7357V86.7357Z" fill="white"/>
<defs>
<linearGradient id="paint0_linear_39_102108" x1="123.816" y1="197.873" x2="210.494" y2="271.716" gradientUnits="userSpaceOnUse">
<stop offset="0.01"/>
<stop offset="0.13" stop-opacity="0.69"/>
<stop offset="0.25" stop-opacity="0.32"/>
<stop offset="1" stop-opacity="0"/>
</linearGradient>
<linearGradient id="paint1_linear_39_102108" x1="94.7077" y1="210.493" x2="238.873" y2="192.202" gradientUnits="userSpaceOnUse">
<stop offset="0.01"/>
<stop offset="0.13" stop-opacity="0.69"/>
<stop offset="0.25" stop-opacity="0.32"/>
<stop offset="1" stop-opacity="0"/>
</linearGradient>
<linearGradient id="paint2_linear_39_102108" x1="191.13" y1="229.158" x2="349.874" y2="214.523" gradientUnits="userSpaceOnUse">
<stop offset="0.01"/>
<stop offset="0.13" stop-opacity="0.69"/>
<stop offset="0.25" stop-opacity="0.32"/>
<stop offset="1" stop-opacity="0"/>
</linearGradient>
<linearGradient id="paint3_linear_39_102108" x1="159.381" y1="181.02" x2="412.658" y2="178.881" gradientUnits="userSpaceOnUse">
<stop offset="0.01"/>
<stop offset="0.13" stop-opacity="0.69"/>
<stop offset="0.25" stop-opacity="0.32"/>
<stop offset="1" stop-opacity="0"/>
</linearGradient>
<linearGradient id="paint4_linear_39_102108" x1="155.317" y1="135.733" x2="410.021" y2="108.976" gradientUnits="userSpaceOnUse">
<stop offset="0.01"/>
<stop offset="0.13" stop-opacity="0.69"/>
<stop offset="0.25" stop-opacity="0.32"/>
<stop offset="1" stop-opacity="0"/>
</linearGradient>
<linearGradient id="paint5_linear_39_102108" x1="261.069" y1="196.288" x2="347.759" y2="270.131" gradientUnits="userSpaceOnUse">
<stop offset="0.01"/>
<stop offset="0.13" stop-opacity="0.69"/>
<stop offset="0.25" stop-opacity="0.32"/>
<stop offset="1" stop-opacity="0"/>
</linearGradient>
</defs>
</svg>
