<svg width="273" height="206" viewBox="0 0 273 206" fill="none" xmlns="http://www.w3.org/2000/svg">
<g clip-path="url(#clip0_45_102153)">
<path opacity="0.19" d="M265.824 119.938C257.525 135.324 241.052 146.609 223.586 146.501C217.312 146.458 210.999 145.034 204.8 146.088C200.506 146.824 196.469 148.732 192.454 150.521C171.945 159.705 147.184 166.019 127.764 154.707C116.374 148.071 107.556 135.748 94.4855 134.346C86.3644 133.475 78.5438 137.14 70.9648 140.193C60.0579 144.583 47.997 147.893 36.6446 144.841C24.7017 141.617 15.8345 131.981 9.91945 120.857C8.4365 118.075 7.12786 115.204 6.00113 112.259C-3.16132 88.4046 -2.52258 59.6329 12.6354 39.0671C24.0791 23.5044 42.2215 14.3258 60.4712 8.09215C102.365 -6.21308 143.25 7.74285 186.378 5.30312C198.064 4.64213 210.194 3.56198 221.112 7.77509C229.802 11.123 236.941 17.5555 243.28 24.3803C255.174 37.1863 265.158 52.1525 269.989 68.9566C271.738 75.027 272.735 81.2898 272.957 87.6039C273.333 98.8353 271.138 110.083 265.824 119.938Z" fill="#7F56D9"/>
<path opacity="0.19" d="M265.822 119.939C257.524 135.325 241.051 146.61 223.585 146.502C217.31 146.459 210.998 145.035 204.798 146.089C200.504 146.825 196.468 148.732 192.453 150.522C171.943 159.706 147.183 166.02 127.763 154.708C116.373 148.071 107.554 135.749 94.484 134.347C86.3629 133.476 78.5424 137.141 70.9634 140.193C60.0564 144.584 47.9955 147.894 36.6431 144.842C24.7003 141.617 15.833 131.982 9.91797 120.858C14.4428 118.784 19.8533 119.88 24.8613 120.589C40.0301 122.723 55.4931 120.68 69.5892 114.678C84.5594 108.262 100.184 97.6162 117.232 101.496C133.871 105.258 149.663 118.101 167.462 115.468C174.09 114.49 180.097 111.019 185.438 106.977C197.391 97.9279 206.827 85.7991 219.167 77.2869C231.507 68.7747 248.791 64.5239 261.228 72.8964C266.52 76.4593 270.191 81.7902 272.95 87.6262C273.331 98.8361 271.136 110.084 265.822 119.939Z" fill="#7F56D9"/>
<path d="M202.428 61.3789L215.696 82.337L205.632 88.5008L192.449 91.3758L202.428 61.3789Z" fill="#7F56D9"/>
<path d="M202.428 61.3789L215.696 82.337L205.632 88.5008L192.449 91.3758L202.428 61.3789Z" fill="url(#paint0_linear_45_102153)"/>
<path d="M110.691 149.828C110.836 149.855 116.676 188.971 116.676 188.971C116.676 188.971 120.922 189.992 120.772 188.971C120.621 187.95 121.357 175.44 122.226 172.968C123.096 170.496 120.616 149.828 120.616 149.828H110.691Z" fill="url(#paint1_linear_45_102153)"/>
<path d="M129.637 149.565C129.637 149.565 130.512 169.33 132.251 174.285C133.99 179.24 136.174 189.434 136.174 189.434H141.542L140.554 149.151C140.554 149.151 134.435 145.094 129.637 149.565Z" fill="url(#paint2_linear_45_102153)"/>
<path d="M115.562 186.337C116.894 186.165 118.246 186.735 119.572 186.59C120.126 186.46 120.694 186.404 121.263 186.423C121.352 186.43 121.436 186.468 121.499 186.531C121.548 186.607 121.569 186.699 121.558 186.789V188.562C121.558 189.417 121.558 190.352 121.021 191.023C120.485 191.695 119.486 191.937 118.59 192.012C118.3 192.057 118.004 192.033 117.726 191.942C117.454 191.809 117.215 191.616 117.028 191.378C116.432 190.728 115.981 190.352 115.901 189.476C115.89 189.196 115.605 186.337 115.562 186.337Z" fill="#7F56D9"/>
<path d="M141.12 187.116C141.212 187.095 141.307 187.097 141.397 187.122C141.488 187.147 141.571 187.194 141.639 187.259C141.706 187.324 141.757 187.405 141.785 187.495C141.814 187.584 141.819 187.68 141.802 187.772C141.867 189.044 141.784 190.319 141.555 191.571C141.527 191.908 141.436 192.236 141.286 192.539C140.9 193.216 140.036 193.42 139.263 193.463C138.087 193.538 136.756 193.318 136.042 192.388C135.692 191.811 135.478 191.163 135.414 190.491C135.291 189.793 135.044 189.121 134.931 188.428C134.829 187.831 134.985 187.541 135.591 187.455C136.445 187.326 137.336 187.31 138.2 187.256C139.182 187.181 140.154 187.138 141.12 187.116Z" fill="#7F56D9"/>
<path d="M106.07 201.379C106.013 201.711 106.046 202.053 106.167 202.368C106.309 202.641 106.507 202.881 106.747 203.073C106.987 203.266 107.265 203.406 107.562 203.486C109.516 204.157 115.495 200.079 117.385 199.246C119.047 198.546 120.637 197.687 122.135 196.682C122.285 196.575 121.894 191.308 121.786 190.508C121.788 190.447 121.777 190.387 121.755 190.331C121.733 190.274 121.7 190.223 121.657 190.18C121.579 190.133 121.491 190.107 121.4 190.105C120.498 190.029 119.591 190.105 118.684 190.105C118.22 190.112 117.755 190.092 117.294 190.046C116.88 189.928 116.456 189.85 116.027 189.814C115.34 189.89 114.019 192.05 113.424 192.383C106.612 196.204 106.252 200.1 106.07 201.379Z" fill="#25233A"/>
<path d="M134.873 195.216C134.742 195.727 134.699 196.255 134.744 196.78C134.9 197.592 135.603 198.172 136.263 198.672C137.471 199.58 144.051 206.163 147.878 204.046C148.119 203.882 148.306 203.65 148.415 203.379C148.555 203.071 148.637 202.739 148.657 202.401C148.792 200.929 148.472 199.45 147.739 198.167C147.084 197.038 143.155 193.594 142.758 192.352C142.516 191.6 142.441 190.681 141.77 190.256C141.679 190.191 141.571 190.155 141.459 190.154C141.289 190.176 141.13 190.25 141.003 190.364C139.832 191.148 138.319 190.944 136.977 190.751C136.585 190.692 135.753 190.213 135.431 190.428C134.953 190.762 135.012 192.094 134.991 192.578C135.003 193.459 134.964 194.34 134.873 195.216V195.216Z" fill="#25233A"/>
<path d="M143.504 57.882C143.504 57.882 161.721 46.5216 162.011 46.2744C162.301 46.0272 180.712 31.0449 182.811 28.9437C184.909 26.8425 186.509 23.2689 189.445 24.4297C192.381 25.5904 192.445 30.1743 188.704 34.3498C188.259 34.8496 185.344 34.7851 185.237 34.9194C184.984 35.2204 184.442 35.8061 182.816 37.6064C181.19 39.4066 171.233 50.2188 165.447 52.9918C159.66 55.7647 148.453 67.7108 148.453 67.7108L143.504 57.882Z" fill="url(#paint3_linear_45_102153)"/>
<path d="M104.684 59.3648C103.948 60.2246 87.6633 51.046 87.6633 51.046L68.442 31.4798C68.442 31.4798 65.1356 28.594 62.7899 32.5545C60.4443 36.5151 66.3379 40.3789 66.3379 40.3789L70.1864 41.0023C70.1864 41.0023 79.5153 56.5327 81.818 57.3119C84.1207 58.0912 101.007 71.8214 101.168 70.0265C101.329 68.2316 104.684 59.3648 104.684 59.3648Z" fill="url(#paint4_linear_45_102153)"/>
<path d="M112.68 41.759C112.176 46.8749 113.088 52.3831 116.438 56.2684C117.227 57.1927 118.187 58.1063 118.327 59.3154C118.345 59.9123 118.308 60.5097 118.214 61.0995C118.171 61.3949 118.19 61.6961 118.269 61.9838C118.349 62.2716 118.487 62.5396 118.676 62.7708C118.777 62.8768 118.901 62.9589 119.038 63.0112C119.175 63.0636 119.322 63.0848 119.469 63.0735C119.615 63.0622 119.757 63.0186 119.884 62.9458C120.012 62.873 120.121 62.7729 120.206 62.6526L121.569 65.5383C121.665 65.8174 121.855 66.0546 122.106 66.2101C122.341 66.2854 122.595 66.2854 122.83 66.2101C124.354 65.9292 125.8 65.3245 127.071 64.4367C127.226 64.3045 127.41 64.209 127.607 64.1573C128.493 64.0175 128.681 65.5276 129.534 65.8554C130.179 66.108 130.833 65.5491 131.3 65.0386L133.158 63.0234C133.474 63.6967 134.023 64.2329 134.703 64.5334C134.909 63.9618 135.189 63.4198 135.535 62.9213C135.461 63.919 135.567 64.9219 135.847 65.8823L136.786 64.7161C136.872 64.6033 136.985 64.4797 137.13 64.4904C137.226 64.5085 137.315 64.5575 137.382 64.6302L138.917 65.9897C138.123 63.6414 138.477 61.0727 139.035 58.6652C139.593 56.2577 140.35 53.8287 140.345 51.3782C140.345 48.2022 139.078 45.1821 137.843 42.2426C137.341 40.8802 136.654 39.5929 135.804 38.4164C134.548 36.8043 132.755 35.7832 130.973 34.8428C129.452 33.9503 127.786 33.3319 126.051 33.0157C124.693 32.8858 123.324 32.931 121.977 33.15C120.546 33.322 119.105 33.5011 117.656 33.6874C116.411 33.8648 115.852 33.9346 115.058 34.9127C113.496 36.8795 112.916 39.3622 112.68 41.759Z" fill="#25233A"/>
<path d="M135.724 48.7893C135.806 49.2329 135.736 49.6912 135.525 50.0898C135.314 50.4853 135.074 50.8643 134.806 51.2237C134.596 51.566 134.357 51.8896 134.092 52.191C133.824 52.4959 133.45 52.6878 133.046 52.7284C131.532 52.7768 132.122 50.2403 132.627 49.445C133.18 48.5153 135.268 46.9246 135.724 48.7893Z" fill="url(#paint5_linear_45_102153)"/>
<path d="M133.633 49.842C133.752 49.664 133.855 49.4751 133.939 49.2777C134.023 49.0773 134.167 48.9082 134.352 48.794C134.444 48.7392 134.552 48.7168 134.658 48.7305C134.764 48.7441 134.862 48.793 134.937 48.8693C135.109 49.0842 134.996 49.4067 134.862 49.6324C134.551 50.1698 134.561 51.0403 134.073 51.438C133.826 51.6057 133.559 51.7428 133.279 51.8464C132.926 51.9334 132.558 51.9334 132.205 51.8464C132.06 51.7389 132.388 51.0135 132.371 50.8307C132.355 50.648 132.371 50.3793 132.431 50.2934C132.49 50.2074 132.747 50.2934 132.855 50.2934C133.008 50.2756 133.157 50.2264 133.291 50.1487C133.425 50.0711 133.541 49.9667 133.633 49.842V49.842Z" fill="url(#paint6_linear_45_102153)"/>
<path d="M39.8155 65.7598L25.7578 82.7573L46.6645 101.356L52.6064 95.9824L54.5978 67.431C54.6729 66.6357 39.8155 65.7598 39.8155 65.7598Z" fill="#7F56D9"/>
<path d="M39.8155 65.7598L25.7578 82.7573L46.6645 101.356L52.6064 95.9824L54.5978 67.431C54.6729 66.6357 39.8155 65.7598 39.8155 65.7598Z" fill="url(#paint7_linear_45_102153)"/>
<path d="M148.902 66.8063C148.843 67.1464 148.686 67.462 148.451 67.7145C147.581 68.918 146.623 70.055 145.585 71.1161C143.974 72.6799 141.994 73.9374 140.926 75.9096C139.401 78.7309 140.577 104.757 140.689 109.394C140.722 110.722 120.148 111.544 111.13 110.56C111.248 105.794 113.97 97.4965 112.993 92.8266C112.204 89.0649 111.608 91.1822 109.568 85.0506C108.731 82.5464 109.354 79.5262 109.799 76.9199C110.094 75.1627 102.199 71.9867 101.168 70.0414C101.23 68.7755 101.399 67.5171 101.673 66.2797V66.2797C102.138 64.1598 102.903 62.117 103.943 60.2126C104.095 59.8575 104.351 59.5575 104.678 59.3527C105.073 59.2067 105.504 59.1916 105.908 59.3097C109.015 59.8717 112.051 60.7728 114.963 61.9967C117.689 63.1359 120.523 62.6469 123.395 62.26C130.53 61.2982 137.472 59.2277 143.969 56.123C145.529 59.3832 147.089 62.6415 148.649 65.8981C148.813 66.1727 148.901 66.4864 148.902 66.8063Z" fill="#7F56D9"/>
<path d="M148.903 66.8078C148.844 67.1479 148.687 67.4635 148.452 67.716C147.583 68.9195 146.624 70.0565 145.586 71.1177C143.976 72.6814 141.995 73.9389 140.927 75.9111C139.403 78.7324 140.578 104.758 140.691 109.396C140.718 110.546 125.291 111.314 115.297 110.863L132.054 109.578C132.054 109.578 139.161 84.6114 137.379 77.9586C135.769 71.9452 142.747 64.9592 147.084 62.6484L148.656 65.9319C148.813 66.1976 148.898 66.4994 148.903 66.8078V66.8078Z" fill="url(#paint8_linear_45_102153)"/>
<path d="M123.337 58.4622C123.278 57.6884 123.165 56.8501 123.552 56.1837C123.986 55.6047 124.593 55.1793 125.285 54.9692C126.563 54.4318 128.136 53.9213 129.241 54.7543C129.839 55.2895 130.231 56.0179 130.347 56.8125C130.678 58.4746 130.774 60.1751 130.632 61.8639C130.546 63.3471 130.347 64.9216 129.392 66.0555C128.743 66.7292 127.975 67.276 127.127 67.6677C125.978 68.2803 124.475 68.866 123.477 68.0277C120.492 65.5611 123.562 61.5952 123.337 58.4622Z" fill="url(#paint9_linear_45_102153)"/>
<path d="M111.129 110.561L104.398 151.192C104.398 151.192 111.29 152.461 127.227 150.596C136.137 149.559 142.583 149.865 146.55 150.338C147.064 150.4 147.586 150.335 148.07 150.149C148.553 149.963 148.985 149.663 149.326 149.273C149.668 148.883 149.909 148.415 150.03 147.911C150.15 147.406 150.146 146.88 150.017 146.377L140.705 109.394C140.705 109.394 113.411 106.729 111.129 110.561Z" fill="#7F56D9"/>
<path d="M146.534 150.338C144.897 150.139 142.836 149.978 140.35 149.924C135.966 149.845 131.581 150.07 127.227 150.596C111.29 152.461 104.398 151.192 104.398 151.192L111.129 110.561C112.573 108.132 124.06 108.314 132.278 108.771H132.38C136.615 109.008 139.959 109.309 140.581 109.378H140.689V109.411L140.834 109.991L149.991 146.361C150.122 146.864 150.128 147.391 150.01 147.897C149.891 148.402 149.651 148.871 149.311 149.263C148.97 149.655 148.539 149.958 148.055 150.145C147.571 150.332 147.049 150.399 146.534 150.338Z" fill="url(#paint10_linear_45_102153)"/>
<path d="M62.4408 35.7734L51.1367 59.182H52.1619L62.7897 36.3861C62.7897 36.3861 62.9937 35.7734 62.4408 35.7734Z" fill="#7F56D9"/>
<path d="M62.7891 60.1855L66.337 40.4043L67.1583 40.5386L63.6693 60.997C63.6693 60.997 62.8481 61.7063 62.7891 60.1855Z" fill="#7F56D9"/>
<path d="M40.0601 58.0373C40.0601 58.0373 59.9201 55.2214 69.8501 64.6311L72.389 67.3825L63.978 89.4153C63.978 89.4153 59.3297 92.6934 54.8531 91.7691C50.3766 90.8448 42.0353 88.6684 42.0353 88.6684C42.0353 88.6684 39.3516 87.8086 39.3516 83.7083C39.3516 79.608 40.0601 58.0373 40.0601 58.0373Z" fill="#7F56D9"/>
<path d="M40.0601 58.0373C40.0601 58.0373 59.9201 55.2214 69.8501 64.6311L72.389 67.3825L63.978 89.4153C63.978 89.4153 59.3297 92.6934 54.8531 91.7691C50.3766 90.8448 42.0353 88.6684 42.0353 88.6684C42.0353 88.6684 39.3516 87.8086 39.3516 83.7083C39.3516 79.608 40.0601 58.0373 40.0601 58.0373Z" fill="url(#paint11_linear_45_102153)"/>
<path d="M185.235 34.918L180.898 64.3076H181.532L185.885 34.918H185.235Z" fill="#7F56D9"/>
<path d="M188.703 34.3485L193.733 58.6437L194.672 58.4771L189.197 33.752L188.703 34.3485Z" fill="#7F56D9"/>
<path d="M177.012 66.5598C177.012 66.5598 189.357 56.0431 199.77 58.6441H203.141C203.141 58.6441 201.096 78.5865 201.778 83.5412C202.459 88.4959 187.038 93.6924 185.879 93.4184C184.72 93.1443 180.356 93.6924 179.808 87.2707C179.261 80.8489 177.012 66.5598 177.012 66.5598Z" fill="#7F56D9"/>
<path d="M177.012 66.5598C177.012 66.5598 189.357 56.0431 199.77 58.6441H203.141C203.141 58.6441 201.096 78.5865 201.778 83.5412C202.459 88.4959 187.038 93.6924 185.879 93.4184C184.72 93.1443 180.356 93.6924 179.808 87.2707C179.261 80.8489 177.012 66.5598 177.012 66.5598Z" fill="url(#paint12_linear_45_102153)"/>
<path d="M62.7897 36.3858L60.793 64.3299H61.7913L63.4016 36.3858C63.4016 36.3858 62.9722 35.6496 62.7897 36.3858Z" fill="#7F56D9"/>
<path d="M64.332 38.7012L70.1934 63.8025L71.4548 63.4478L65.0728 39.4105L64.332 38.7012Z" fill="#7F56D9"/>
<path d="M54.8294 64.1531L61.7965 64.309L76.1119 62.6699L83.4654 90.9633L63.4229 101.34L52.3711 99.4164L54.8294 64.1531Z" fill="#7F56D9"/>
<path d="M63.4229 101.34L61.7965 64.3082L54.8294 64.1523L52.3711 99.4157L63.4229 101.34Z" fill="url(#paint13_linear_45_102153)"/>
<path d="M183.387 70.074L186.838 70.692L192.855 72.057L205.19 66.178L194.669 64.7754L183.387 70.074Z" fill="#7F56D9"/>
<path d="M183.387 70.074L186.838 70.692L192.855 72.057L205.19 66.178L194.669 64.7754L183.387 70.074Z" fill="url(#paint14_linear_45_102153)"/>
<path d="M205.19 66.1777L192.855 72.0567L183.387 70.0738L184.584 96.5616L192.855 99.4151L205.705 92.4613L205.19 66.1777Z" fill="#7F56D9"/>
<path d="M118.398 55.0487C119.928 57.9129 123.229 60.1055 126.38 59.251C128.726 58.6115 130.368 56.4781 131.372 54.2641C132.234 52.2178 132.875 50.0847 133.283 47.9014C133.739 45.811 134.141 43.6507 133.744 41.5495C133.29 39.5152 132.125 37.7105 130.459 36.4609C128.792 35.2114 126.735 34.5994 124.657 34.7354C115.328 35.6382 115.033 48.729 118.398 55.0487Z" fill="url(#paint15_linear_45_102153)"/>
<path d="M122.964 28.2594C126.754 27.4534 131.015 28.1358 133.903 30.6992C136.791 33.2625 138.127 37.5025 141.225 39.953C142.223 40.7429 143.538 41.3394 144.756 40.9633C144.418 41.6787 143.887 42.2855 143.224 42.7155C142.56 43.1456 141.79 43.3818 140.999 43.3976C141.518 43.929 142.177 44.3018 142.899 44.4724C142.499 44.9893 141.991 45.4127 141.411 45.7134C140.83 46.014 140.192 46.1847 139.539 46.2135C139.865 46.4636 140.086 46.8254 140.162 47.2292C138.857 47.9009 137.296 47.8364 135.868 47.5301C134.661 47.2665 133.521 46.7593 132.517 46.0396C131.513 45.3198 130.666 44.4025 130.028 43.3439C126.968 37.9324 121.611 33.9719 117.339 40.7537C116.008 39.867 114.591 38.846 114.371 37.266C113.748 32.58 119.035 29.0924 122.964 28.2594Z" fill="#25233A"/>
<path d="M185.883 34.9175V70.6914H186.838L186.361 34.8047L185.883 34.9175Z" fill="#7F56D9"/>
<path d="M187.539 34.6983L197.276 66.56H198.178L188.221 34.5801L187.539 34.6983Z" fill="#7F56D9"/>
<path d="M192.857 72.0564V99.4147L187.538 95.7551L186.84 70.6914L192.857 72.0564Z" fill="url(#paint16_linear_45_102153)"/>
<path d="M184.584 96.562L187.536 95.7559L186.838 70.6922L183.387 70.0742L184.584 96.562Z" fill="url(#paint17_linear_45_102153)"/>
<path d="M205.19 66.1777L192.855 72.0567V99.4151L198.175 96.5401L205.19 66.1777Z" fill="url(#paint18_linear_45_102153)"/>
<path d="M109.799 76.9254C110.094 75.1682 102.199 71.9922 101.168 70.0469C101.23 68.781 101.399 67.5226 101.673 66.2852V66.2852C101.673 66.2852 110.014 69.934 110.47 72.0513C110.926 74.1686 109.799 76.9254 109.799 76.9254Z" fill="url(#paint19_linear_45_102153)"/>
<path d="M146.536 150.338C144.899 150.14 142.838 149.978 140.353 149.925L133.912 127.129C133.912 127.129 131.808 110.539 132.302 108.771H132.404L140.605 109.379H140.713V109.411L140.858 109.991L150.015 146.362C150.147 146.866 150.153 147.395 150.034 147.903C149.914 148.411 149.672 148.881 149.329 149.274C148.986 149.666 148.552 149.968 148.065 150.154C147.578 150.339 147.053 150.403 146.536 150.338V150.338Z" fill="url(#paint20_linear_45_102153)"/>
</g>
<defs>
<linearGradient id="paint0_linear_45_102153" x1="211.756" y1="66.4626" x2="197.828" y2="94.2915" gradientUnits="userSpaceOnUse">
<stop stop-opacity="0"/>
<stop offset="0.88" stop-opacity="0.8"/>
<stop offset="0.97"/>
</linearGradient>
<linearGradient id="paint1_linear_45_102153" x1="110.691" y1="169.625" x2="122.414" y2="169.625" gradientUnits="userSpaceOnUse">
<stop stop-color="#ECC4D7"/>
<stop offset="0.42" stop-color="#EFD4D1"/>
<stop offset="1" stop-color="#F2EAC9"/>
</linearGradient>
<linearGradient id="paint2_linear_45_102153" x1="129.637" y1="168.444" x2="141.553" y2="168.444" gradientUnits="userSpaceOnUse">
<stop stop-color="#ECC4D7"/>
<stop offset="0.42" stop-color="#EFD4D1"/>
<stop offset="1" stop-color="#F2EAC9"/>
</linearGradient>
<linearGradient id="paint3_linear_45_102153" x1="143.504" y1="45.9574" x2="191.587" y2="45.9574" gradientUnits="userSpaceOnUse">
<stop stop-color="#ECC4D7"/>
<stop offset="0.42" stop-color="#EFD4D1"/>
<stop offset="1" stop-color="#F2EAC9"/>
</linearGradient>
<linearGradient id="paint4_linear_45_102153" x1="62.2424" y1="50.342" x2="104.684" y2="50.342" gradientUnits="userSpaceOnUse">
<stop stop-color="#ECC4D7"/>
<stop offset="0.42" stop-color="#EFD4D1"/>
<stop offset="1" stop-color="#F2EAC9"/>
</linearGradient>
<linearGradient id="paint5_linear_45_102153" x1="132.053" y1="50.3155" x2="135.74" y2="50.3155" gradientUnits="userSpaceOnUse">
<stop stop-color="#ECC4D7"/>
<stop offset="0.42" stop-color="#EFD4D1"/>
<stop offset="1" stop-color="#F2EAC9"/>
</linearGradient>
<linearGradient id="paint6_linear_45_102153" x1="133.161" y1="50.1536" x2="140.812" y2="53.4198" gradientUnits="userSpaceOnUse">
<stop stop-color="#ECC4D7"/>
<stop offset="0.42" stop-color="#EFD4D1"/>
<stop offset="1" stop-color="#F2EAC9"/>
</linearGradient>
<linearGradient id="paint7_linear_45_102153" x1="26.0047" y1="87.927" x2="56.2391" y2="80.2753" gradientUnits="userSpaceOnUse">
<stop stop-opacity="0"/>
<stop offset="0.88" stop-opacity="0.8"/>
<stop offset="0.97"/>
</linearGradient>
<linearGradient id="paint8_linear_45_102153" x1="110.692" y1="76.6689" x2="170.567" y2="106.067" gradientUnits="userSpaceOnUse">
<stop stop-opacity="0"/>
<stop offset="0.88" stop-opacity="0.8"/>
<stop offset="0.97"/>
</linearGradient>
<linearGradient id="paint9_linear_45_102153" x1="125.946" y1="60.8966" x2="132.907" y2="69.5083" gradientUnits="userSpaceOnUse">
<stop stop-color="#ECC4D7"/>
<stop offset="0.42" stop-color="#EFD4D1"/>
<stop offset="1" stop-color="#F2EAC9"/>
</linearGradient>
<linearGradient id="paint10_linear_45_102153" x1="55.9507" y1="134.265" x2="153.276" y2="128.228" gradientUnits="userSpaceOnUse">
<stop stop-opacity="0"/>
<stop offset="0.88" stop-opacity="0.8"/>
<stop offset="0.97"/>
</linearGradient>
<linearGradient id="paint11_linear_45_102153" x1="39.0188" y1="67.7157" x2="64.8274" y2="80.6049" gradientUnits="userSpaceOnUse">
<stop stop-opacity="0"/>
<stop offset="0.88" stop-opacity="0.8"/>
<stop offset="0.97"/>
</linearGradient>
<linearGradient id="paint12_linear_45_102153" x1="180.957" y1="62.6154" x2="199.117" y2="82.7193" gradientUnits="userSpaceOnUse">
<stop stop-opacity="0"/>
<stop offset="0.88" stop-opacity="0.8"/>
<stop offset="0.97"/>
</linearGradient>
<linearGradient id="paint13_linear_45_102153" x1="40.2672" y1="73.3148" x2="79.5821" y2="93.2522" gradientUnits="userSpaceOnUse">
<stop stop-opacity="0"/>
<stop offset="0.88" stop-opacity="0.8"/>
<stop offset="0.97"/>
</linearGradient>
<linearGradient id="paint14_linear_45_102153" x1="194.288" y1="54.8015" x2="194.288" y2="78.4089" gradientUnits="userSpaceOnUse">
<stop stop-opacity="0"/>
<stop offset="0.88" stop-opacity="0.8"/>
<stop offset="0.97"/>
</linearGradient>
<linearGradient id="paint15_linear_45_102153" x1="126.815" y1="36.1488" x2="122.57" y2="58.0884" gradientUnits="userSpaceOnUse">
<stop stop-color="#ECC4D7"/>
<stop offset="0.42" stop-color="#EFD4D1"/>
<stop offset="1" stop-color="#F2EAC9"/>
</linearGradient>
<linearGradient id="paint16_linear_45_102153" x1="199.969" y1="80.9179" x2="178.502" y2="89.6758" gradientUnits="userSpaceOnUse">
<stop stop-opacity="0"/>
<stop offset="0.88" stop-opacity="0.8"/>
<stop offset="0.97"/>
</linearGradient>
<linearGradient id="paint17_linear_45_102153" x1="192.265" y1="78.0598" x2="176.987" y2="88.9411" gradientUnits="userSpaceOnUse">
<stop stop-opacity="0"/>
<stop offset="0.88" stop-opacity="0.8"/>
<stop offset="0.97"/>
</linearGradient>
<linearGradient id="paint18_linear_45_102153" x1="184.971" y1="68.0908" x2="231.876" y2="117.062" gradientUnits="userSpaceOnUse">
<stop stop-color="white" stop-opacity="0"/>
<stop offset="0.84" stop-color="white" stop-opacity="0.84"/>
<stop offset="0.97" stop-color="white"/>
</linearGradient>
<linearGradient id="paint19_linear_45_102153" x1="115.902" y1="65.6672" x2="94.8324" y2="77.9518" gradientUnits="userSpaceOnUse">
<stop stop-opacity="0"/>
<stop offset="0.88" stop-opacity="0.8"/>
<stop offset="0.97"/>
</linearGradient>
<linearGradient id="paint20_linear_45_102153" x1="117.364" y1="130.955" x2="150.455" y2="128.901" gradientUnits="userSpaceOnUse">
<stop stop-opacity="0"/>
<stop offset="0.88" stop-opacity="0.8"/>
<stop offset="0.97"/>
</linearGradient>
<clipPath id="clip0_45_102153">
<rect width="273" height="206" fill="white"/>
</clipPath>
</defs>
</svg>
