<svg width="211" height="150" viewBox="0 0 211 150" fill="none" xmlns="http://www.w3.org/2000/svg">
<rect width="211" height="150" rx="8" fill="white"/>
<g clip-path="url(#clip0_7522_101168)">
<path d="M127.5 92.5V57.5C127.5 54.75 125.25 52.5 122.5 52.5H87.5C84.75 52.5 82.5 54.75 82.5 57.5V92.5C82.5 95.25 84.75 97.5 87.5 97.5H122.5C125.25 97.5 127.5 95.25 127.5 92.5ZM97.25 79.95L102.5 86.275L110.25 76.3C110.75 75.65 111.75 75.65 112.25 76.325L121.025 88.025C121.65 88.85 121.05 90.025 120.025 90.025H90.05C89 90.025 88.425 88.825 89.075 88L95.3 80C95.775 79.35 96.725 79.325 97.25 79.95V79.95Z" fill="#B7B8B9"/>
</g>
<defs>
<clipPath id="clip0_7522_101168">
<rect width="60" height="60" fill="white" transform="translate(75 45)"/>
</clipPath>
</defs>
</svg>
