<svg width="142" height="72" viewBox="0 0 142 72" fill="none" xmlns="http://www.w3.org/2000/svg">
<path d="M50.4477 0L0 1.14814L1.08028 71.3157L49.7651 66.0684L50.4477 0Z" fill="#7F56D9"/>
<path d="M24.9434 44.9378C24.9574 45.7624 24.8207 46.5691 24.5334 47.358C24.2456 48.1173 23.7604 48.7592 23.0778 49.2836C22.4252 49.8056 21.5134 50.1117 20.3424 50.2019C19.1413 50.2943 18.1915 50.1315 17.4929 49.7134C16.8243 49.2931 16.3336 48.7263 16.0209 48.0131C15.7377 47.2682 15.5891 46.4835 15.5751 45.6588L15.2043 23.7918C15.1898 22.9377 15.3112 22.1174 15.5684 21.3309C15.8557 20.5421 16.3257 19.8866 16.9783 19.3646C17.6604 18.8107 18.602 18.4876 19.803 18.3952C21.4845 18.2658 22.6786 18.6457 23.3852 19.535C24.1218 20.4219 24.5153 21.468 24.5658 22.6731C24.6574 22.7546 24.7047 22.8836 24.7077 23.0603C24.7142 23.4432 24.5223 23.6496 24.1319 23.6797C23.7416 23.7097 23.5432 23.5333 23.5367 23.1505C23.5342 23.0032 23.5772 22.8819 23.6658 22.7866C23.6198 21.8465 23.3048 21.0009 22.7208 20.2496C22.1668 19.496 21.1992 19.1724 19.818 19.2787C18.8572 19.3527 18.095 19.6177 17.5315 20.074C16.998 20.5279 16.6166 21.088 16.3874 21.7544C16.1877 22.3891 16.0936 23.0451 16.1051 23.7224L16.4759 45.5895C16.4933 46.6203 16.7793 47.5272 17.3338 48.3102C17.8882 49.0932 18.8861 49.4293 20.3274 49.3183C21.7687 49.2074 22.7526 48.7188 23.2791 47.8526C23.8055 46.9864 24.0601 46.0379 24.0426 45.0071L23.9092 37.1438L20.4862 37.4073C20.3976 37.5026 20.2783 37.556 20.1281 37.5675C19.7378 37.5976 19.5394 37.4212 19.5329 37.0383C19.5264 36.6555 19.7183 36.449 20.1087 36.419C20.2588 36.4074 20.3797 36.4423 20.4712 36.5238L24.7951 36.191L24.9434 44.9378Z" fill="white"/>
<path d="M37.5229 43.9696C37.5369 44.7943 37.4002 45.601 37.1129 46.3898C36.8252 47.1492 36.34 47.791 35.6573 48.3154C35.0047 48.8375 34.0929 49.1435 32.9219 49.2337C31.7208 49.3261 30.771 49.1633 30.0724 48.7453C29.4038 48.3249 28.9131 47.7581 28.6004 47.045C28.3172 46.3 28.1686 45.5153 28.1546 44.6907L27.7838 22.8236C27.7693 21.9695 27.8907 21.1492 28.148 20.3627C28.4352 19.5739 28.9052 18.9184 29.5578 18.3964C30.2399 17.8426 31.1815 17.5194 32.3826 17.427C34.0641 17.2976 35.2581 17.6775 35.9647 18.5668C36.7013 19.4537 37.0949 20.4998 37.1454 21.705C37.2369 21.7864 37.2842 21.9154 37.2872 22.0921C37.2937 22.475 37.1018 22.6815 36.7114 22.7115C36.3211 22.7415 36.1227 22.5651 36.1162 22.1823C36.1137 22.035 36.1567 21.9138 36.2453 21.8185C36.1993 20.8784 35.8843 20.0327 35.3003 19.2814C34.7464 18.5278 33.7788 18.2042 32.3975 18.3105C31.4367 18.3845 30.6745 18.6496 30.111 19.1058C29.5775 19.5597 29.1961 20.1198 28.9669 20.7862C28.7672 21.4209 28.6731 22.0769 28.6846 22.7542L29.0554 44.6213C29.0729 45.6521 29.3588 46.559 29.9133 47.342C30.4678 48.125 31.4656 48.4611 32.9069 48.3502C34.3482 48.2392 35.3321 47.7507 35.8586 46.8844C36.3851 46.0182 36.6396 45.0697 36.6221 44.039L36.4888 36.1756L33.0657 36.4391C32.9771 36.5344 32.8578 36.5878 32.7077 36.5994C32.3173 36.6294 32.1189 36.453 32.1124 36.0701C32.1059 35.6873 32.2978 35.4808 32.6882 35.4508C32.8383 35.4392 32.9592 35.4742 33.0507 35.5556L37.3746 35.2228L37.5229 43.9696Z" fill="white"/>
<path d="M68.647 32.2064C68.647 33.1936 68.4727 34.1455 68.124 35.0622C67.7754 35.9436 67.2001 36.6663 66.3983 37.2304C65.6313 37.7945 64.5679 38.0766 63.2083 38.0766C61.8137 38.0766 60.7155 37.7945 59.9136 37.2304C59.1466 36.6663 58.5888 35.9436 58.2402 35.0622C57.9264 34.1455 57.7695 33.1936 57.7695 32.2064V6.02879C57.7695 5.00636 57.9264 4.03682 58.2402 3.12016C58.5888 2.2035 59.1466 1.46313 59.9136 0.899031C60.7155 0.299677 61.8137 0 63.2083 0C65.1606 0 66.5377 0.564097 67.3396 1.69229C68.1763 2.82049 68.6121 4.10733 68.647 5.55283C68.7516 5.6586 68.8039 5.81725 68.8039 6.02879C68.8039 6.48712 68.5773 6.71628 68.124 6.71628C67.6708 6.71628 67.4442 6.48712 67.4442 6.02879C67.4442 5.85251 67.4965 5.71148 67.6011 5.60572C67.5662 4.47752 67.2176 3.43747 66.5552 2.48555C65.9276 1.53364 64.812 1.05768 63.2083 1.05768C62.0926 1.05768 61.2036 1.30447 60.5412 1.79806C59.9136 2.29164 59.4604 2.92625 59.1815 3.70189C58.9375 4.44227 58.8154 5.2179 58.8154 6.02879V32.2064C58.8154 33.4404 59.1292 34.551 59.7568 35.5381C60.3843 36.5253 61.5348 37.0189 63.2083 37.0189C64.8817 37.0189 66.0322 36.5253 66.6598 35.5381C67.2873 34.551 67.6011 33.4404 67.6011 32.2064V22.7931H63.6266C63.522 22.8988 63.3826 22.9517 63.2083 22.9517C62.755 22.9517 62.5284 22.7225 62.5284 22.2642C62.5284 21.8059 62.755 21.5767 63.2083 21.5767C63.3826 21.5767 63.522 21.6296 63.6266 21.7354H68.647V32.2064Z" fill="white"/>
<path d="M82.207 36.49C82.3814 36.3843 82.5382 36.3314 82.6777 36.3314C83.1309 36.3314 83.3575 36.5605 83.3575 37.0189C83.3575 37.4772 83.1309 37.7064 82.6777 37.7064C82.5382 37.7064 82.3814 37.6535 82.207 37.5477H72.4801V6.50475C72.4801 5.48232 72.637 4.5304 72.9507 3.649C73.2994 2.73234 73.8746 1.99197 74.6765 1.42787C75.4783 0.828517 76.5766 0.528841 77.9711 0.528841H82.207C82.3814 0.423074 82.5382 0.37019 82.6777 0.37019C83.1309 0.37019 83.3575 0.599354 83.3575 1.05768C83.3575 1.51601 83.1309 1.74518 82.6777 1.74518C82.5382 1.74518 82.3814 1.69229 82.207 1.58652H77.9711C76.8206 1.58652 75.9141 1.83332 75.2517 2.3269C74.6242 2.78523 74.171 3.40221 73.8921 4.17784C73.648 4.91822 73.526 5.69386 73.526 6.50475V11.1057H80.6905C80.8648 10.9999 81.0217 10.947 81.1611 10.947C81.6144 10.947 81.841 11.1762 81.841 11.6345C81.841 12.0928 81.6144 12.322 81.1611 12.322C81.0217 12.322 80.8648 12.2691 80.6905 12.1633H73.526V36.49H82.207Z" fill="white"/>
<path d="M97.3519 36.966C97.4565 37.0718 97.5088 37.2128 97.5088 37.3891C97.5088 37.8474 97.2821 38.0766 96.8289 38.0766C96.3757 38.0766 96.1491 37.8474 96.1491 37.3891C96.1491 37.2128 96.2014 37.0718 96.306 36.966V2.0096L87.5203 11.4759V36.966C87.6249 37.0718 87.6772 37.2128 87.6772 37.3891C87.6772 37.8474 87.4506 38.0766 86.9974 38.0766C86.5441 38.0766 86.3175 37.8474 86.3175 37.3891C86.3175 37.2128 86.3698 37.0718 86.4744 36.966V1.16345C86.3698 0.987171 86.3175 0.828519 86.3175 0.687494C86.3175 0.229165 86.5441 0 86.9974 0C87.4506 0 87.6772 0.229165 87.6772 0.687494C87.6772 0.828519 87.6249 0.987171 87.5203 1.16345V9.9951L96.306 0.528841H97.3519V36.966Z" fill="white"/>
<path d="M112.724 31.5189C112.724 32.5061 112.55 33.4756 112.201 34.4276C111.887 35.3442 111.329 36.1022 110.527 36.7016C109.76 37.2657 108.662 37.5477 107.233 37.5477H101.846V0.528841H107.233C108.662 0.528841 109.76 0.828517 110.527 1.42787C111.329 1.99197 111.887 2.73234 112.201 3.649C112.55 4.56566 112.724 5.5352 112.724 6.55763V31.5189ZM107.233 36.49C108.383 36.49 109.272 36.2432 109.9 35.7497C110.562 35.2561 111.016 34.6391 111.26 33.8987C111.539 33.1231 111.678 32.3298 111.678 31.5189V6.55763C111.678 5.74674 111.539 4.97111 111.26 4.23073C111.016 3.4551 110.562 2.82049 109.9 2.3269C109.272 1.83332 108.383 1.58652 107.233 1.58652H102.892V36.49H107.233Z" fill="white"/>
<path d="M127.89 32.0478C127.89 33.0349 127.716 34.0045 127.367 34.9564C127.019 35.8731 126.444 36.6311 125.642 37.2304C124.875 37.7945 123.811 38.0766 122.452 38.0766C121.057 38.0766 119.959 37.7945 119.157 37.2304C118.39 36.6311 117.832 35.8731 117.484 34.9564C117.17 34.0045 117.013 33.0349 117.013 32.0478V1.16345C116.908 0.987171 116.856 0.828519 116.856 0.687494C116.856 0.229165 117.083 0 117.536 0C117.989 0 118.216 0.229165 118.216 0.687494C118.216 0.828519 118.163 0.987171 118.059 1.16345V32.0478C118.059 32.8234 118.181 33.599 118.425 34.3747C118.704 35.1503 119.157 35.7849 119.785 36.2785C120.447 36.7721 121.336 37.0189 122.452 37.0189C123.567 37.0189 124.439 36.7721 125.066 36.2785C125.729 35.7849 126.182 35.1503 126.426 34.3747C126.705 33.599 126.844 32.8234 126.844 32.0478V1.16345C126.74 0.987171 126.688 0.828519 126.688 0.687494C126.688 0.229165 126.914 0 127.367 0C127.821 0 128.047 0.229165 128.047 0.687494C128.047 0.828519 127.995 0.987171 127.89 1.16345V32.0478Z" fill="white"/>
<path d="M136.728 36.966C136.832 37.0718 136.885 37.2128 136.885 37.3891C136.885 37.8474 136.658 38.0766 136.205 38.0766C135.752 38.0766 135.525 37.8474 135.525 37.3891C135.525 37.2128 135.577 37.0718 135.682 36.966V1.58652H131.708C131.568 1.69229 131.429 1.74518 131.289 1.74518C130.836 1.74518 130.609 1.51601 130.609 1.05768C130.609 0.599354 130.836 0.37019 131.289 0.37019C131.463 0.37019 131.603 0.423074 131.708 0.528841H140.65C140.824 0.423074 140.981 0.37019 141.121 0.37019C141.574 0.37019 141.801 0.599354 141.801 1.05768C141.801 1.51601 141.574 1.74518 141.121 1.74518C141.016 1.74518 140.859 1.69229 140.65 1.58652H136.728V36.966Z" fill="white"/>
<path d="M66.9021 54.4064H68.7522V59.9132C68.0841 60.4914 67.3068 60.9352 66.4203 61.2445C65.5339 61.5538 64.6088 61.7085 63.6453 61.7085C62.2834 61.7085 61.0565 61.3992 59.9644 60.7806C58.8724 60.1485 58.0116 59.2879 57.3821 58.1986C56.7654 57.0959 56.457 55.8587 56.457 54.487C56.457 53.1154 56.7654 51.8782 57.3821 50.7755C58.0116 49.6728 58.8724 48.8121 59.9644 48.1935C61.0693 47.5749 62.3091 47.2656 63.6838 47.2656C64.763 47.2656 65.7394 47.4539 66.6131 47.8304C67.4995 48.1935 68.2511 48.7314 68.8678 49.4442L67.673 50.6948C66.5938 49.6055 65.2898 49.0609 63.7609 49.0609C62.7331 49.0609 61.8081 49.2962 60.9858 49.7669C60.1764 50.2241 59.5405 50.8696 59.0779 51.7034C58.6154 52.5237 58.3842 53.4516 58.3842 54.487C58.3842 55.5091 58.6154 56.437 59.0779 57.2707C59.5405 58.091 60.1764 58.7365 60.9858 59.2072C61.8081 59.6779 62.7267 59.9132 63.7416 59.9132C64.9493 59.9132 66.0028 59.6106 66.9021 59.0055V54.4064Z" fill="white"/>
<path d="M83.4844 61.5471L80.5744 57.2102C80.2147 57.2371 79.9321 57.2505 79.7265 57.2505H76.3925V61.5471H74.4654V47.427H79.7265C81.4738 47.427 82.8485 47.864 83.8506 48.7381C84.8527 49.6122 85.3537 50.8158 85.3537 52.3489C85.3537 53.4381 85.0968 54.366 84.5829 55.1325C84.069 55.899 83.3367 56.4571 82.386 56.8068L85.585 61.5471H83.4844ZM79.6687 55.536C80.8892 55.536 81.8207 55.2603 82.463 54.7089C83.1054 54.1576 83.4266 53.3709 83.4266 52.3489C83.4266 51.3268 83.1054 50.5469 82.463 50.009C81.8207 49.4576 80.8892 49.1819 79.6687 49.1819H76.3925V55.536H79.6687Z" fill="white"/>
<path d="M96.5805 61.7085C95.2187 61.7085 93.9917 61.3992 92.8997 60.7806C91.8077 60.1485 90.9469 59.2811 90.3173 58.1784C89.7007 57.0757 89.3923 55.8453 89.3923 54.487C89.3923 53.1288 89.7007 51.8984 90.3173 50.7956C90.9469 49.6929 91.8077 48.8323 92.8997 48.2137C93.9917 47.5816 95.2187 47.2656 96.5805 47.2656C97.9295 47.2656 99.1501 47.5816 100.242 48.2137C101.334 48.8323 102.189 49.6929 102.805 50.7956C103.422 51.8849 103.73 53.1154 103.73 54.487C103.73 55.8587 103.422 57.0959 102.805 58.1986C102.189 59.2879 101.334 60.1485 100.242 60.7806C99.1501 61.3992 97.9295 61.7085 96.5805 61.7085ZM96.5805 59.9132C97.5698 59.9132 98.4563 59.6779 99.24 59.2072C100.037 58.7365 100.66 58.091 101.109 57.2707C101.572 56.437 101.803 55.5091 101.803 54.487C101.803 53.465 101.572 52.5438 101.109 51.7235C100.66 50.8898 100.037 50.2376 99.24 49.7669C98.4563 49.2962 97.5698 49.0609 96.5805 49.0609C95.5913 49.0609 94.6919 49.2962 93.8825 49.7669C93.086 50.2376 92.4565 50.8898 91.9939 51.7235C91.5443 52.5438 91.3195 53.465 91.3195 54.487C91.3195 55.5091 91.5443 56.437 91.9939 57.2707C92.4565 58.091 93.086 58.7365 93.8825 59.2072C94.6919 59.6779 95.5913 59.9132 96.5805 59.9132Z" fill="white"/>
<path d="M112.631 61.7085C111.616 61.7085 110.633 61.5471 109.682 61.2243C108.744 60.8881 108.005 60.4578 107.466 59.9334L108.179 58.36C108.693 58.8441 109.348 59.2408 110.145 59.5501C110.954 59.846 111.783 59.9939 112.631 59.9939C113.748 59.9939 114.583 59.7989 115.136 59.4089C115.688 59.0055 115.965 58.4743 115.965 57.8153C115.965 57.3312 115.81 56.9412 115.502 56.6454C115.207 56.3361 114.834 56.1008 114.384 55.9394C113.947 55.778 113.324 55.5965 112.515 55.3948C111.5 55.1393 110.678 54.8837 110.048 54.6282C109.432 54.3727 108.898 53.9828 108.449 53.4583C108.012 52.9204 107.793 52.2009 107.793 51.2999C107.793 50.5469 107.98 49.8678 108.352 49.2626C108.738 48.6575 109.316 48.1733 110.087 47.8103C110.858 47.4472 111.815 47.2656 112.958 47.2656C113.755 47.2656 114.538 47.3732 115.309 47.5884C116.08 47.8035 116.742 48.1128 117.294 48.5163L116.658 50.13C116.093 49.7534 115.489 49.471 114.847 49.2828C114.204 49.0811 113.575 48.9802 112.958 48.9802C111.866 48.9802 111.044 49.1886 110.491 49.6055C109.952 50.0224 109.682 50.5603 109.682 51.2192C109.682 51.7034 109.836 52.1001 110.145 52.4094C110.453 52.7052 110.832 52.9406 111.282 53.1154C111.744 53.2767 112.367 53.4516 113.151 53.6398C114.166 53.8953 114.982 54.1508 115.598 54.4064C116.215 54.6619 116.742 55.0518 117.179 55.5763C117.628 56.1008 117.853 56.8068 117.853 57.6943C117.853 58.4339 117.66 59.113 117.275 59.7316C116.89 60.3368 116.305 60.8209 115.521 61.184C114.738 61.5336 113.774 61.7085 112.631 61.7085Z" fill="white"/>
<path d="M122.692 47.427H124.619V61.5471H122.692V47.427Z" fill="white"/>
<path d="M139.7 61.5471L136.79 57.2102C136.431 57.2371 136.148 57.2505 135.943 57.2505H132.609V61.5471H130.681V47.427H135.943C137.69 47.427 139.064 47.864 140.067 48.7381C141.069 49.6122 141.57 50.8158 141.57 52.3489C141.57 53.4381 141.313 54.366 140.799 55.1325C140.285 55.899 139.553 56.4571 138.602 56.8068L141.801 61.5471H139.7ZM135.885 55.536C137.105 55.536 138.037 55.2603 138.679 54.7089C139.321 54.1576 139.643 53.3709 139.643 52.3489C139.643 51.3268 139.321 50.5469 138.679 50.009C138.037 49.4576 137.105 49.1819 135.885 49.1819H132.609V55.536H135.885Z" fill="white"/>
</svg>
