<svg width="220" height="90" viewBox="0 0 220 90" fill="none" xmlns="http://www.w3.org/2000/svg">
<path d="M0 45C7.00093e-07 36.9919 6.49187 30.5 14.5 30.5C18.8417 30.5 22.7378 32.4082 25.3952 35.4318C30.2168 40.845 34.2038 40.5602 38.4379 36.5639C40.5154 34.6024 43.3173 33.4 46.4 33.4C52.8065 33.4 58 38.5935 58 45C58 51.4065 52.8065 56.6 46.4 56.6C43.3173 56.6 40.5154 55.3975 38.4379 53.436C34.2048 49.4407 30.2187 49.155 25.3987 54.5642C22.7412 57.5901 18.8436 59.5 14.5 59.5C6.49187 59.5 -7.00091e-07 53.0081 0 45Z" fill="#F2F5FA"/>
<path d="M0 45C7.00093e-07 36.9919 6.49187 30.5 14.5 30.5C18.8417 30.5 22.7378 32.4082 25.3952 35.4318C30.2168 40.845 34.2038 40.5602 38.4379 36.5639C40.5154 34.6024 43.3173 33.4 46.4 33.4C52.8065 33.4 58 38.5935 58 45C58 51.4065 52.8065 56.6 46.4 56.6C43.3173 56.6 40.5154 55.3975 38.4379 53.436C34.2048 49.4407 30.2187 49.155 25.3987 54.5642C22.7412 57.5901 18.8436 59.5 14.5 59.5C6.49187 59.5 -7.00091e-07 53.0081 0 45Z" fill="url(#paint0_linear_5328_147901)"/>
<path d="M0 45C7.00093e-07 36.9919 6.49187 30.5 14.5 30.5C18.8417 30.5 22.7378 32.4082 25.3952 35.4318C30.2168 40.845 34.2038 40.5602 38.4379 36.5639C40.5154 34.6024 43.3173 33.4 46.4 33.4C52.8065 33.4 58 38.5935 58 45C58 51.4065 52.8065 56.6 46.4 56.6C43.3173 56.6 40.5154 55.3975 38.4379 53.436C34.2048 49.4407 30.2187 49.155 25.3987 54.5642C22.7412 57.5901 18.8436 59.5 14.5 59.5C6.49187 59.5 -7.00091e-07 53.0081 0 45Z" fill="url(#paint1_linear_5328_147901)"/>
<path d="M0 45C7.00093e-07 36.9919 6.49187 30.5 14.5 30.5C18.8417 30.5 22.7378 32.4082 25.3952 35.4318C30.2168 40.845 34.2038 40.5602 38.4379 36.5639C40.5154 34.6024 43.3173 33.4 46.4 33.4C52.8065 33.4 58 38.5935 58 45C58 51.4065 52.8065 56.6 46.4 56.6C43.3173 56.6 40.5154 55.3975 38.4379 53.436C34.2048 49.4407 30.2187 49.155 25.3987 54.5642C22.7412 57.5901 18.8436 59.5 14.5 59.5C6.49187 59.5 -7.00091e-07 53.0081 0 45Z" fill="url(#paint2_radial_5328_147901)"/>
<path d="M0 45C7.00093e-07 36.9919 6.49187 30.5 14.5 30.5C18.8417 30.5 22.7378 32.4082 25.3952 35.4318C30.2168 40.845 34.2038 40.5602 38.4379 36.5639C40.5154 34.6024 43.3173 33.4 46.4 33.4C52.8065 33.4 58 38.5935 58 45C58 51.4065 52.8065 56.6 46.4 56.6C43.3173 56.6 40.5154 55.3975 38.4379 53.436C34.2048 49.4407 30.2187 49.155 25.3987 54.5642C22.7412 57.5901 18.8436 59.5 14.5 59.5C6.49187 59.5 -7.00091e-07 53.0081 0 45Z" fill="url(#paint3_radial_5328_147901)"/>
<path d="M0 45C7.00093e-07 36.9919 6.49187 30.5 14.5 30.5C18.8417 30.5 22.7378 32.4082 25.3952 35.4318C30.2168 40.845 34.2038 40.5602 38.4379 36.5639C40.5154 34.6024 43.3173 33.4 46.4 33.4C52.8065 33.4 58 38.5935 58 45C58 51.4065 52.8065 56.6 46.4 56.6C43.3173 56.6 40.5154 55.3975 38.4379 53.436C34.2048 49.4407 30.2187 49.155 25.3987 54.5642C22.7412 57.5901 18.8436 59.5 14.5 59.5C6.49187 59.5 -7.00091e-07 53.0081 0 45Z" fill="url(#paint4_radial_5328_147901)"/>
<path d="M81.44 44.84H83.9V50.42C83.18 50.9933 82.34 51.4333 81.38 51.74C80.42 52.0467 79.4333 52.2 78.42 52.2C76.9933 52.2 75.7067 51.8933 74.56 51.28C73.4133 50.6533 72.5133 49.7933 71.86 48.7C71.2067 47.6067 70.88 46.3733 70.88 45C70.88 43.6267 71.2067 42.3933 71.86 41.3C72.5133 40.2067 73.4133 39.3533 74.56 38.74C75.72 38.1133 77.02 37.8 78.46 37.8C79.6333 37.8 80.7 37.9933 81.66 38.38C82.62 38.7667 83.4267 39.3333 84.08 40.08L82.44 41.68C81.3733 40.6133 80.0867 40.08 78.58 40.08C77.5933 40.08 76.7133 40.2867 75.94 40.7C75.18 41.1133 74.58 41.6933 74.14 42.44C73.7133 43.1867 73.5 44.04 73.5 45C73.5 45.9333 73.7133 46.7733 74.14 47.52C74.58 48.2667 75.18 48.8533 75.94 49.28C76.7133 49.7067 77.5867 49.92 78.56 49.92C79.6533 49.92 80.6133 49.68 81.44 49.2V44.84ZM96.7292 46.72C96.7292 46.8933 96.7159 47.14 96.6892 47.46H88.3092C88.4559 48.2467 88.8359 48.8733 89.4492 49.34C90.0759 49.7933 90.8492 50.02 91.7692 50.02C92.9426 50.02 93.9092 49.6333 94.6692 48.86L96.0092 50.4C95.5292 50.9733 94.9226 51.4067 94.1892 51.7C93.4559 51.9933 92.6292 52.14 91.7092 52.14C90.5359 52.14 89.5026 51.9067 88.6092 51.44C87.7159 50.9733 87.0226 50.3267 86.5292 49.5C86.0492 48.66 85.8092 47.7133 85.8092 46.66C85.8092 45.62 86.0426 44.6867 86.5092 43.86C86.9892 43.02 87.6492 42.3667 88.4892 41.9C89.3292 41.4333 90.2759 41.2 91.3292 41.2C92.3692 41.2 93.2959 41.4333 94.1092 41.9C94.9359 42.3533 95.5759 43 96.0292 43.84C96.4959 44.6667 96.7292 45.6267 96.7292 46.72ZM91.3292 43.2C90.5292 43.2 89.8492 43.44 89.2892 43.92C88.7426 44.3867 88.4092 45.0133 88.2892 45.8H94.3492C94.2426 45.0267 93.9159 44.4 93.3692 43.92C92.8226 43.44 92.1426 43.2 91.3292 43.2ZM104.791 41.2C106.137 41.2 107.217 41.5933 108.031 42.38C108.844 43.1667 109.251 44.3333 109.251 45.88V52H106.751V46.2C106.751 45.2667 106.531 44.5667 106.091 44.1C105.651 43.62 105.024 43.38 104.211 43.38C103.291 43.38 102.564 43.66 102.031 44.22C101.497 44.7667 101.231 45.56 101.231 46.6V52H98.7306V41.32H101.111V42.7C101.524 42.2067 102.044 41.8333 102.671 41.58C103.297 41.3267 104.004 41.2 104.791 41.2ZM122.58 37.16V52H120.18V50.62C119.766 51.1267 119.253 51.5067 118.64 51.76C118.04 52.0133 117.373 52.14 116.64 52.14C115.613 52.14 114.686 51.9133 113.86 51.46C113.046 51.0067 112.406 50.3667 111.94 49.54C111.473 48.7 111.24 47.74 111.24 46.66C111.24 45.58 111.473 44.6267 111.94 43.8C112.406 42.9733 113.046 42.3333 113.86 41.88C114.686 41.4267 115.613 41.2 116.64 41.2C117.346 41.2 117.993 41.32 118.58 41.56C119.166 41.8 119.666 42.16 120.08 42.64V37.16H122.58ZM116.94 50C117.54 50 118.08 49.8667 118.56 49.6C119.04 49.32 119.42 48.9267 119.7 48.42C119.98 47.9133 120.12 47.3267 120.12 46.66C120.12 45.9933 119.98 45.4067 119.7 44.9C119.42 44.3933 119.04 44.0067 118.56 43.74C118.08 43.46 117.54 43.32 116.94 43.32C116.34 43.32 115.8 43.46 115.32 43.74C114.84 44.0067 114.46 44.3933 114.18 44.9C113.9 45.4067 113.76 45.9933 113.76 46.66C113.76 47.3267 113.9 47.9133 114.18 48.42C114.46 48.9267 114.84 49.32 115.32 49.6C115.8 49.8667 116.34 50 116.94 50ZM135.79 41.32V52H133.41V50.64C133.01 51.12 132.51 51.4933 131.91 51.76C131.31 52.0133 130.663 52.14 129.97 52.14C128.543 52.14 127.417 51.7467 126.59 50.96C125.777 50.16 125.37 48.98 125.37 47.42V41.32H127.87V47.08C127.87 48.04 128.083 48.76 128.51 49.24C128.95 49.7067 129.57 49.94 130.37 49.94C131.263 49.94 131.97 49.6667 132.49 49.12C133.023 48.56 133.29 47.76 133.29 46.72V41.32H135.79ZM145.083 51.42C144.79 51.66 144.43 51.84 144.003 51.96C143.59 52.08 143.15 52.14 142.683 52.14C141.51 52.14 140.603 51.8333 139.963 51.22C139.323 50.6067 139.003 49.7133 139.003 48.54V43.4H137.243V41.4H139.003V38.96H141.503V41.4H144.363V43.4H141.503V48.48C141.503 49 141.63 49.4 141.883 49.68C142.137 49.9467 142.503 50.08 142.983 50.08C143.543 50.08 144.01 49.9333 144.383 49.64L145.083 51.42ZM161.667 44.84H164.127V50.42C163.407 50.9933 162.567 51.4333 161.607 51.74C160.647 52.0467 159.661 52.2 158.647 52.2C157.221 52.2 155.934 51.8933 154.787 51.28C153.641 50.6533 152.741 49.7933 152.087 48.7C151.434 47.6067 151.107 46.3733 151.107 45C151.107 43.6267 151.434 42.3933 152.087 41.3C152.741 40.2067 153.641 39.3533 154.787 38.74C155.947 38.1133 157.247 37.8 158.687 37.8C159.861 37.8 160.927 37.9933 161.887 38.38C162.847 38.7667 163.654 39.3333 164.307 40.08L162.667 41.68C161.601 40.6133 160.314 40.08 158.807 40.08C157.821 40.08 156.941 40.2867 156.167 40.7C155.407 41.1133 154.807 41.6933 154.367 42.44C153.941 43.1867 153.727 44.04 153.727 45C153.727 45.9333 153.941 46.7733 154.367 47.52C154.807 48.2667 155.407 48.8533 156.167 49.28C156.941 49.7067 157.814 49.92 158.787 49.92C159.881 49.92 160.841 49.68 161.667 49.2V44.84ZM169.297 42.88C170.017 41.76 171.283 41.2 173.097 41.2V43.58C172.883 43.54 172.69 43.52 172.517 43.52C171.543 43.52 170.783 43.8067 170.237 44.38C169.69 44.94 169.417 45.7533 169.417 46.82V52H166.917V41.32H169.297V42.88ZM179.52 52.14C178.44 52.14 177.466 51.9067 176.6 51.44C175.733 50.9733 175.053 50.3267 174.56 49.5C174.08 48.66 173.84 47.7133 173.84 46.66C173.84 45.6067 174.08 44.6667 174.56 43.84C175.053 43.0133 175.733 42.3667 176.6 41.9C177.466 41.4333 178.44 41.2 179.52 41.2C180.613 41.2 181.593 41.4333 182.46 41.9C183.326 42.3667 184 43.0133 184.48 43.84C184.973 44.6667 185.22 45.6067 185.22 46.66C185.22 47.7133 184.973 48.66 184.48 49.5C184 50.3267 183.326 50.9733 182.46 51.44C181.593 51.9067 180.613 52.14 179.52 52.14ZM179.52 50C180.44 50 181.2 49.6933 181.8 49.08C182.4 48.4667 182.7 47.66 182.7 46.66C182.7 45.66 182.4 44.8533 181.8 44.24C181.2 43.6267 180.44 43.32 179.52 43.32C178.6 43.32 177.84 43.6267 177.24 44.24C176.653 44.8533 176.36 45.66 176.36 46.66C176.36 47.66 176.653 48.4667 177.24 49.08C177.84 49.6933 178.6 50 179.52 50ZM190.51 52.14C189.644 52.14 188.797 52.0267 187.97 51.8C187.144 51.5733 186.484 51.2867 185.99 50.94L186.95 49.04C187.43 49.36 188.004 49.62 188.67 49.82C189.35 50.0067 190.017 50.1 190.67 50.1C192.164 50.1 192.91 49.7067 192.91 48.92C192.91 48.5467 192.717 48.2867 192.33 48.14C191.957 47.9933 191.35 47.8533 190.51 47.72C189.63 47.5867 188.91 47.4333 188.35 47.26C187.804 47.0867 187.324 46.7867 186.91 46.36C186.51 45.92 186.31 45.3133 186.31 44.54C186.31 43.5267 186.73 42.72 187.57 42.12C188.424 41.5067 189.57 41.2 191.01 41.2C191.744 41.2 192.477 41.2867 193.21 41.46C193.944 41.62 194.544 41.84 195.01 42.12L194.05 44.02C193.144 43.4867 192.124 43.22 190.99 43.22C190.257 43.22 189.697 43.3333 189.31 43.56C188.937 43.7733 188.75 44.06 188.75 44.42C188.75 44.82 188.95 45.1067 189.35 45.28C189.764 45.44 190.397 45.5933 191.25 45.74C192.104 45.8733 192.804 46.0267 193.35 46.2C193.897 46.3733 194.364 46.6667 194.75 47.08C195.15 47.4933 195.35 48.08 195.35 48.84C195.35 49.84 194.917 50.64 194.05 51.24C193.184 51.84 192.004 52.14 190.51 52.14ZM197.103 41.32H199.603V52H197.103V41.32ZM198.363 39.56C197.91 39.56 197.53 39.42 197.223 39.14C196.917 38.8467 196.763 38.4867 196.763 38.06C196.763 37.6333 196.917 37.28 197.223 37C197.53 36.7067 197.91 36.56 198.363 36.56C198.817 36.56 199.197 36.7 199.503 36.98C199.81 37.2467 199.963 37.5867 199.963 38C199.963 38.44 199.81 38.8133 199.503 39.12C199.21 39.4133 198.83 39.56 198.363 39.56ZM204.865 42.88C205.585 41.76 206.851 41.2 208.665 41.2V43.58C208.451 43.54 208.258 43.52 208.085 43.52C207.111 43.52 206.351 43.8067 205.805 44.38C205.258 44.94 204.985 45.7533 204.985 46.82V52H202.485V41.32H204.865V42.88Z" fill="#FCFAFF"/>
<defs>
<linearGradient id="paint0_linear_5328_147901" x1="43.6961" y1="52.2069" x2="10.3036" y2="26.2567" gradientUnits="userSpaceOnUse">
<stop stop-color="#FF557E"/>
<stop offset="0.841052" stop-color="#FF5555" stop-opacity="0"/>
</linearGradient>
<linearGradient id="paint1_linear_5328_147901" x1="14.5023" y1="57.5553" x2="23.4238" y2="26.65" gradientUnits="userSpaceOnUse">
<stop stop-color="#58CCDC"/>
<stop offset="1" stop-color="#58CCDC" stop-opacity="0"/>
</linearGradient>
<radialGradient id="paint2_radial_5328_147901" cx="0" cy="0" r="1" gradientUnits="userSpaceOnUse" gradientTransform="translate(45.4879 65.541) rotate(-122.928) scale(37.051 30.3393)">
<stop stop-color="#8263DB"/>
<stop offset="0.568731" stop-color="#8172DA" stop-opacity="0.26"/>
<stop offset="1" stop-color="#8172DA" stop-opacity="0"/>
</radialGradient>
<radialGradient id="paint3_radial_5328_147901" cx="0" cy="0" r="1" gradientUnits="userSpaceOnUse" gradientTransform="translate(18.3021 26.305) rotate(77.6745) scale(24.9567 39.2264)">
<stop stop-color="#41D1B7"/>
<stop offset="0.492704" stop-color="#41D1B7" stop-opacity="0.35"/>
<stop offset="1" stop-color="#41D1B7" stop-opacity="0"/>
</radialGradient>
<radialGradient id="paint4_radial_5328_147901" cx="0" cy="0" r="1" gradientUnits="userSpaceOnUse" gradientTransform="translate(59.6446 19.7554) rotate(125.113) scale(27.1121 57.4261)">
<stop stop-color="#FFEC45"/>
<stop offset="0.549191" stop-color="#FFEC45" stop-opacity="0.3"/>
<stop offset="0.961144" stop-color="#FFEC45" stop-opacity="0"/>
</radialGradient>
</defs>
</svg>
