<svg width="218" height="90" viewBox="0 0 218 90" fill="none" xmlns="http://www.w3.org/2000/svg">
<path d="M0 45C7.00093e-07 36.9919 6.49187 30.5 14.5 30.5C18.8417 30.5 22.7378 32.4082 25.3952 35.4318C30.2168 40.845 34.2038 40.5602 38.4379 36.5639C40.5154 34.6024 43.3173 33.4 46.4 33.4C52.8065 33.4 58 38.5935 58 45C58 51.4065 52.8065 56.6 46.4 56.6C43.3173 56.6 40.5154 55.3975 38.4379 53.436C34.2048 49.4407 30.2187 49.155 25.3987 54.5642C22.7412 57.5901 18.8436 59.5 14.5 59.5C6.49187 59.5 -7.00091e-07 53.0081 0 45Z" fill="#F2F5FA"/>
<path d="M0 45C7.00093e-07 36.9919 6.49187 30.5 14.5 30.5C18.8417 30.5 22.7378 32.4082 25.3952 35.4318C30.2168 40.845 34.2038 40.5602 38.4379 36.5639C40.5154 34.6024 43.3173 33.4 46.4 33.4C52.8065 33.4 58 38.5935 58 45C58 51.4065 52.8065 56.6 46.4 56.6C43.3173 56.6 40.5154 55.3975 38.4379 53.436C34.2048 49.4407 30.2187 49.155 25.3987 54.5642C22.7412 57.5901 18.8436 59.5 14.5 59.5C6.49187 59.5 -7.00091e-07 53.0081 0 45Z" fill="url(#paint0_linear_5328_147900)"/>
<path d="M0 45C7.00093e-07 36.9919 6.49187 30.5 14.5 30.5C18.8417 30.5 22.7378 32.4082 25.3952 35.4318C30.2168 40.845 34.2038 40.5602 38.4379 36.5639C40.5154 34.6024 43.3173 33.4 46.4 33.4C52.8065 33.4 58 38.5935 58 45C58 51.4065 52.8065 56.6 46.4 56.6C43.3173 56.6 40.5154 55.3975 38.4379 53.436C34.2048 49.4407 30.2187 49.155 25.3987 54.5642C22.7412 57.5901 18.8436 59.5 14.5 59.5C6.49187 59.5 -7.00091e-07 53.0081 0 45Z" fill="url(#paint1_linear_5328_147900)"/>
<path d="M0 45C7.00093e-07 36.9919 6.49187 30.5 14.5 30.5C18.8417 30.5 22.7378 32.4082 25.3952 35.4318C30.2168 40.845 34.2038 40.5602 38.4379 36.5639C40.5154 34.6024 43.3173 33.4 46.4 33.4C52.8065 33.4 58 38.5935 58 45C58 51.4065 52.8065 56.6 46.4 56.6C43.3173 56.6 40.5154 55.3975 38.4379 53.436C34.2048 49.4407 30.2187 49.155 25.3987 54.5642C22.7412 57.5901 18.8436 59.5 14.5 59.5C6.49187 59.5 -7.00091e-07 53.0081 0 45Z" fill="url(#paint2_radial_5328_147900)"/>
<path d="M0 45C7.00093e-07 36.9919 6.49187 30.5 14.5 30.5C18.8417 30.5 22.7378 32.4082 25.3952 35.4318C30.2168 40.845 34.2038 40.5602 38.4379 36.5639C40.5154 34.6024 43.3173 33.4 46.4 33.4C52.8065 33.4 58 38.5935 58 45C58 51.4065 52.8065 56.6 46.4 56.6C43.3173 56.6 40.5154 55.3975 38.4379 53.436C34.2048 49.4407 30.2187 49.155 25.3987 54.5642C22.7412 57.5901 18.8436 59.5 14.5 59.5C6.49187 59.5 -7.00091e-07 53.0081 0 45Z" fill="url(#paint3_radial_5328_147900)"/>
<path d="M0 45C7.00093e-07 36.9919 6.49187 30.5 14.5 30.5C18.8417 30.5 22.7378 32.4082 25.3952 35.4318C30.2168 40.845 34.2038 40.5602 38.4379 36.5639C40.5154 34.6024 43.3173 33.4 46.4 33.4C52.8065 33.4 58 38.5935 58 45C58 51.4065 52.8065 56.6 46.4 56.6C43.3173 56.6 40.5154 55.3975 38.4379 53.436C34.2048 49.4407 30.2187 49.155 25.3987 54.5642C22.7412 57.5901 18.8436 59.5 14.5 59.5C6.49187 59.5 -7.00091e-07 53.0081 0 45Z" fill="url(#paint4_radial_5328_147900)"/>
<path d="M81.12 44.78H84.08V50.46C83.32 51.0333 82.44 51.4733 81.44 51.78C80.44 52.0867 79.4333 52.24 78.42 52.24C76.9667 52.24 75.66 51.9333 74.5 51.32C73.34 50.6933 72.4267 49.8333 71.76 48.74C71.1067 47.6333 70.78 46.3867 70.78 45C70.78 43.6133 71.1067 42.3733 71.76 41.28C72.4267 40.1733 73.3467 39.3133 74.52 38.7C75.6933 38.0733 77.0133 37.76 78.48 37.76C79.7067 37.76 80.82 37.9667 81.82 38.38C82.82 38.7933 83.66 39.3933 84.34 40.18L82.26 42.1C81.26 41.0467 80.0533 40.52 78.64 40.52C77.7467 40.52 76.9533 40.7067 76.26 41.08C75.5667 41.4533 75.0267 41.98 74.64 42.66C74.2533 43.34 74.06 44.12 74.06 45C74.06 45.8667 74.2533 46.64 74.64 47.32C75.0267 48 75.56 48.5333 76.24 48.92C76.9333 49.2933 77.72 49.48 78.6 49.48C79.5333 49.48 80.3733 49.28 81.12 48.88V44.78ZM97.0097 46.66C97.0097 46.7 96.9897 46.98 96.9497 47.5H88.8097C88.9564 48.1667 89.303 48.6933 89.8497 49.08C90.3964 49.4667 91.0764 49.66 91.8897 49.66C92.4497 49.66 92.943 49.58 93.3697 49.42C93.8097 49.2467 94.2164 48.98 94.5897 48.62L96.2497 50.42C95.2364 51.58 93.7564 52.16 91.8097 52.16C90.5964 52.16 89.523 51.9267 88.5897 51.46C87.6564 50.98 86.9364 50.32 86.4297 49.48C85.923 48.64 85.6697 47.6867 85.6697 46.62C85.6697 45.5667 85.9164 44.62 86.4097 43.78C86.9164 42.9267 87.603 42.2667 88.4697 41.8C89.3497 41.32 90.3297 41.08 91.4097 41.08C92.463 41.08 93.4164 41.3067 94.2697 41.76C95.123 42.2133 95.7897 42.8667 96.2697 43.72C96.763 44.56 97.0097 45.54 97.0097 46.66ZM91.4297 43.44C90.723 43.44 90.1297 43.64 89.6497 44.04C89.1697 44.44 88.8764 44.9867 88.7697 45.68H94.0697C93.963 45 93.6697 44.46 93.1897 44.06C92.7097 43.6467 92.123 43.44 91.4297 43.44ZM105.227 41.08C106.56 41.08 107.634 41.48 108.447 42.28C109.274 43.08 109.687 44.2667 109.687 45.84V52H106.567V46.32C106.567 45.4667 106.38 44.8333 106.007 44.42C105.634 43.9933 105.094 43.78 104.387 43.78C103.6 43.78 102.974 44.0267 102.507 44.52C102.04 45 101.807 45.72 101.807 46.68V52H98.6869V41.24H101.667V42.5C102.08 42.0467 102.594 41.7 103.207 41.46C103.82 41.2067 104.494 41.08 105.227 41.08ZM123.192 37.16V52H120.212V50.76C119.439 51.6933 118.319 52.16 116.852 52.16C115.839 52.16 114.919 51.9333 114.092 51.48C113.279 51.0267 112.639 50.38 112.172 49.54C111.706 48.7 111.472 47.7267 111.472 46.62C111.472 45.5133 111.706 44.54 112.172 43.7C112.639 42.86 113.279 42.2133 114.092 41.76C114.919 41.3067 115.839 41.08 116.852 41.08C118.226 41.08 119.299 41.5133 120.072 42.38V37.16H123.192ZM117.392 49.6C118.179 49.6 118.832 49.3333 119.352 48.8C119.872 48.2533 120.132 47.5267 120.132 46.62C120.132 45.7133 119.872 44.9933 119.352 44.46C118.832 43.9133 118.179 43.64 117.392 43.64C116.592 43.64 115.932 43.9133 115.412 44.46C114.892 44.9933 114.632 45.7133 114.632 46.62C114.632 47.5267 114.892 48.2533 115.412 48.8C115.932 49.3333 116.592 49.6 117.392 49.6ZM136.52 41.24V52H133.56V50.72C133.147 51.1867 132.653 51.5467 132.08 51.8C131.507 52.04 130.887 52.16 130.22 52.16C128.807 52.16 127.687 51.7533 126.86 50.94C126.033 50.1267 125.62 48.92 125.62 47.32V41.24H128.74V46.86C128.74 48.5933 129.467 49.46 130.92 49.46C131.667 49.46 132.267 49.22 132.72 48.74C133.173 48.2467 133.4 47.52 133.4 46.56V41.24H136.52ZM145.95 51.48C145.644 51.7067 145.264 51.88 144.81 52C144.37 52.1067 143.904 52.16 143.41 52.16C142.13 52.16 141.137 51.8333 140.43 51.18C139.737 50.5267 139.39 49.5667 139.39 48.3V43.88H137.73V41.48H139.39V38.86H142.51V41.48H145.19V43.88H142.51V48.26C142.51 48.7133 142.624 49.0667 142.85 49.32C143.09 49.56 143.424 49.68 143.85 49.68C144.344 49.68 144.764 49.5467 145.11 49.28L145.95 51.48ZM162.246 44.78H165.206V50.46C164.446 51.0333 163.566 51.4733 162.566 51.78C161.566 52.0867 160.559 52.24 159.546 52.24C158.092 52.24 156.786 51.9333 155.626 51.32C154.466 50.6933 153.552 49.8333 152.886 48.74C152.232 47.6333 151.906 46.3867 151.906 45C151.906 43.6133 152.232 42.3733 152.886 41.28C153.552 40.1733 154.472 39.3133 155.646 38.7C156.819 38.0733 158.139 37.76 159.606 37.76C160.832 37.76 161.946 37.9667 162.946 38.38C163.946 38.7933 164.786 39.3933 165.466 40.18L163.386 42.1C162.386 41.0467 161.179 40.52 159.766 40.52C158.872 40.52 158.079 40.7067 157.386 41.08C156.692 41.4533 156.152 41.98 155.766 42.66C155.379 43.34 155.186 44.12 155.186 45C155.186 45.8667 155.379 46.64 155.766 47.32C156.152 48 156.686 48.5333 157.366 48.92C158.059 49.2933 158.846 49.48 159.726 49.48C160.659 49.48 161.499 49.28 162.246 48.88V44.78ZM170.575 42.66C170.949 42.14 171.449 41.7467 172.075 41.48C172.715 41.2133 173.449 41.08 174.275 41.08V43.96C173.929 43.9333 173.695 43.92 173.575 43.92C172.682 43.92 171.982 44.1733 171.475 44.68C170.969 45.1733 170.715 45.92 170.715 46.92V52H167.595V41.24H170.575V42.66ZM180.753 52.16C179.62 52.16 178.6 51.9267 177.693 51.46C176.8 50.98 176.1 50.32 175.593 49.48C175.086 48.64 174.833 47.6867 174.833 46.62C174.833 45.5533 175.086 44.6 175.593 43.76C176.1 42.92 176.8 42.2667 177.693 41.8C178.6 41.32 179.62 41.08 180.753 41.08C181.886 41.08 182.9 41.32 183.793 41.8C184.686 42.2667 185.386 42.92 185.893 43.76C186.4 44.6 186.653 45.5533 186.653 46.62C186.653 47.6867 186.4 48.64 185.893 49.48C185.386 50.32 184.686 50.98 183.793 51.46C182.9 51.9267 181.886 52.16 180.753 52.16ZM180.753 49.6C181.553 49.6 182.206 49.3333 182.713 48.8C183.233 48.2533 183.493 47.5267 183.493 46.62C183.493 45.7133 183.233 44.9933 182.713 44.46C182.206 43.9133 181.553 43.64 180.753 43.64C179.953 43.64 179.293 43.9133 178.773 44.46C178.253 44.9933 177.993 45.7133 177.993 46.62C177.993 47.5267 178.253 48.2533 178.773 48.8C179.293 49.3333 179.953 49.6 180.753 49.6ZM191.958 52.16C191.065 52.16 190.192 52.0533 189.338 51.84C188.485 51.6133 187.805 51.3333 187.298 51L188.338 48.76C188.818 49.0667 189.398 49.32 190.078 49.52C190.758 49.7067 191.425 49.8 192.078 49.8C193.398 49.8 194.058 49.4733 194.058 48.82C194.058 48.5133 193.878 48.2933 193.518 48.16C193.158 48.0267 192.605 47.9133 191.858 47.82C190.978 47.6867 190.252 47.5333 189.678 47.36C189.105 47.1867 188.605 46.88 188.178 46.44C187.765 46 187.558 45.3733 187.558 44.56C187.558 43.88 187.752 43.28 188.138 42.76C188.538 42.2267 189.112 41.8133 189.858 41.52C190.618 41.2267 191.512 41.08 192.538 41.08C193.298 41.08 194.052 41.1667 194.798 41.34C195.558 41.5 196.185 41.7267 196.678 42.02L195.638 44.24C194.692 43.7067 193.658 43.44 192.538 43.44C191.872 43.44 191.372 43.5333 191.038 43.72C190.705 43.9067 190.538 44.1467 190.538 44.44C190.538 44.7733 190.718 45.0067 191.078 45.14C191.438 45.2733 192.012 45.4 192.798 45.52C193.678 45.6667 194.398 45.8267 194.958 46C195.518 46.16 196.005 46.46 196.418 46.9C196.832 47.34 197.038 47.9533 197.038 48.74C197.038 49.4067 196.838 50 196.438 50.52C196.038 51.04 195.452 51.4467 194.678 51.74C193.918 52.02 193.012 52.16 191.958 52.16ZM198.563 41.24H201.683V52H198.563V41.24ZM200.123 39.74C199.55 39.74 199.083 39.5733 198.723 39.24C198.363 38.9067 198.183 38.4933 198.183 38C198.183 37.5067 198.363 37.0933 198.723 36.76C199.083 36.4267 199.55 36.26 200.123 36.26C200.697 36.26 201.163 36.42 201.523 36.74C201.883 37.06 202.063 37.46 202.063 37.94C202.063 38.46 201.883 38.8933 201.523 39.24C201.163 39.5733 200.697 39.74 200.123 39.74ZM207.159 42.66C207.532 42.14 208.032 41.7467 208.659 41.48C209.299 41.2133 210.032 41.08 210.859 41.08V43.96C210.512 43.9333 210.279 43.92 210.159 43.92C209.266 43.92 208.566 44.1733 208.059 44.68C207.552 45.1733 207.299 45.92 207.299 46.92V52H204.179V41.24H207.159V42.66Z" fill="#101828"/>
<defs>
<linearGradient id="paint0_linear_5328_147900" x1="43.6961" y1="52.2069" x2="10.3036" y2="26.2567" gradientUnits="userSpaceOnUse">
<stop stop-color="#FF557E"/>
<stop offset="0.841052" stop-color="#FF5555" stop-opacity="0"/>
</linearGradient>
<linearGradient id="paint1_linear_5328_147900" x1="14.5023" y1="57.5553" x2="23.4238" y2="26.65" gradientUnits="userSpaceOnUse">
<stop stop-color="#58CCDC"/>
<stop offset="1" stop-color="#58CCDC" stop-opacity="0"/>
</linearGradient>
<radialGradient id="paint2_radial_5328_147900" cx="0" cy="0" r="1" gradientUnits="userSpaceOnUse" gradientTransform="translate(45.4879 65.541) rotate(-122.928) scale(37.051 30.3393)">
<stop stop-color="#8263DB"/>
<stop offset="0.568731" stop-color="#8172DA" stop-opacity="0.26"/>
<stop offset="1" stop-color="#8172DA" stop-opacity="0"/>
</radialGradient>
<radialGradient id="paint3_radial_5328_147900" cx="0" cy="0" r="1" gradientUnits="userSpaceOnUse" gradientTransform="translate(18.3021 26.305) rotate(77.6745) scale(24.9567 39.2264)">
<stop stop-color="#41D1B7"/>
<stop offset="0.492704" stop-color="#41D1B7" stop-opacity="0.35"/>
<stop offset="1" stop-color="#41D1B7" stop-opacity="0"/>
</radialGradient>
<radialGradient id="paint4_radial_5328_147900" cx="0" cy="0" r="1" gradientUnits="userSpaceOnUse" gradientTransform="translate(59.6446 19.7554) rotate(125.113) scale(27.1121 57.4261)">
<stop stop-color="#FFEC45"/>
<stop offset="0.549191" stop-color="#FFEC45" stop-opacity="0.3"/>
<stop offset="0.961144" stop-color="#FFEC45" stop-opacity="0"/>
</radialGradient>
</defs>
</svg>
