<svg width="205" height="90" viewBox="0 0 205 90" fill="none" xmlns="http://www.w3.org/2000/svg">
<path d="M68.12 44.78H71.08V50.46C70.32 51.0333 69.44 51.4733 68.44 51.78C67.44 52.0867 66.4333 52.24 65.42 52.24C63.9667 52.24 62.66 51.9333 61.5 51.32C60.34 50.6933 59.4267 49.8333 58.76 48.74C58.1067 47.6333 57.78 46.3867 57.78 45C57.78 43.6133 58.1067 42.3733 58.76 41.28C59.4267 40.1733 60.3467 39.3133 61.52 38.7C62.6933 38.0733 64.0133 37.76 65.48 37.76C66.7067 37.76 67.82 37.9667 68.82 38.38C69.82 38.7933 70.66 39.3933 71.34 40.18L69.26 42.1C68.26 41.0467 67.0533 40.52 65.64 40.52C64.7467 40.52 63.9533 40.7067 63.26 41.08C62.5667 41.4533 62.0267 41.98 61.64 42.66C61.2533 43.34 61.06 44.12 61.06 45C61.06 45.8667 61.2533 46.64 61.64 47.32C62.0267 48 62.56 48.5333 63.24 48.92C63.9333 49.2933 64.72 49.48 65.6 49.48C66.5333 49.48 67.3733 49.28 68.12 48.88V44.78ZM84.0097 46.66C84.0097 46.7 83.9897 46.98 83.9497 47.5H75.8097C75.9564 48.1667 76.303 48.6933 76.8497 49.08C77.3964 49.4667 78.0764 49.66 78.8897 49.66C79.4497 49.66 79.943 49.58 80.3697 49.42C80.8097 49.2467 81.2164 48.98 81.5897 48.62L83.2497 50.42C82.2364 51.58 80.7564 52.16 78.8097 52.16C77.5964 52.16 76.523 51.9267 75.5897 51.46C74.6564 50.98 73.9364 50.32 73.4297 49.48C72.923 48.64 72.6697 47.6867 72.6697 46.62C72.6697 45.5667 72.9164 44.62 73.4097 43.78C73.9164 42.9267 74.603 42.2667 75.4697 41.8C76.3497 41.32 77.3297 41.08 78.4097 41.08C79.463 41.08 80.4164 41.3067 81.2697 41.76C82.123 42.2133 82.7897 42.8667 83.2697 43.72C83.763 44.56 84.0097 45.54 84.0097 46.66ZM78.4297 43.44C77.723 43.44 77.1297 43.64 76.6497 44.04C76.1697 44.44 75.8764 44.9867 75.7697 45.68H81.0697C80.963 45 80.6697 44.46 80.1897 44.06C79.7097 43.6467 79.123 43.44 78.4297 43.44ZM92.2269 41.08C93.5602 41.08 94.6335 41.48 95.4469 42.28C96.2735 43.08 96.6869 44.2667 96.6869 45.84V52H93.5669V46.32C93.5669 45.4667 93.3802 44.8333 93.0069 44.42C92.6335 43.9933 92.0935 43.78 91.3869 43.78C90.6002 43.78 89.9735 44.0267 89.5069 44.52C89.0402 45 88.8069 45.72 88.8069 46.68V52H85.6869V41.24H88.6669V42.5C89.0802 42.0467 89.5935 41.7 90.2069 41.46C90.8202 41.2067 91.4935 41.08 92.2269 41.08ZM110.192 37.16V52H107.212V50.76C106.439 51.6933 105.319 52.16 103.852 52.16C102.839 52.16 101.919 51.9333 101.092 51.48C100.279 51.0267 99.6389 50.38 99.1722 49.54C98.7055 48.7 98.4722 47.7267 98.4722 46.62C98.4722 45.5133 98.7055 44.54 99.1722 43.7C99.6389 42.86 100.279 42.2133 101.092 41.76C101.919 41.3067 102.839 41.08 103.852 41.08C105.226 41.08 106.299 41.5133 107.072 42.38V37.16H110.192ZM104.392 49.6C105.179 49.6 105.832 49.3333 106.352 48.8C106.872 48.2533 107.132 47.5267 107.132 46.62C107.132 45.7133 106.872 44.9933 106.352 44.46C105.832 43.9133 105.179 43.64 104.392 43.64C103.592 43.64 102.932 43.9133 102.412 44.46C101.892 44.9933 101.632 45.7133 101.632 46.62C101.632 47.5267 101.892 48.2533 102.412 48.8C102.932 49.3333 103.592 49.6 104.392 49.6ZM123.52 41.24V52H120.56V50.72C120.147 51.1867 119.653 51.5467 119.08 51.8C118.507 52.04 117.887 52.16 117.22 52.16C115.807 52.16 114.687 51.7533 113.86 50.94C113.033 50.1267 112.62 48.92 112.62 47.32V41.24H115.74V46.86C115.74 48.5933 116.467 49.46 117.92 49.46C118.667 49.46 119.267 49.22 119.72 48.74C120.173 48.2467 120.4 47.52 120.4 46.56V41.24H123.52ZM132.95 51.48C132.644 51.7067 132.264 51.88 131.81 52C131.37 52.1067 130.904 52.16 130.41 52.16C129.13 52.16 128.137 51.8333 127.43 51.18C126.737 50.5267 126.39 49.5667 126.39 48.3V43.88H124.73V41.48H126.39V38.86H129.51V41.48H132.19V43.88H129.51V48.26C129.51 48.7133 129.624 49.0667 129.85 49.32C130.09 49.56 130.424 49.68 130.85 49.68C131.344 49.68 131.764 49.5467 132.11 49.28L132.95 51.48ZM149.246 44.78H152.206V50.46C151.446 51.0333 150.566 51.4733 149.566 51.78C148.566 52.0867 147.559 52.24 146.546 52.24C145.092 52.24 143.786 51.9333 142.626 51.32C141.466 50.6933 140.552 49.8333 139.886 48.74C139.232 47.6333 138.906 46.3867 138.906 45C138.906 43.6133 139.232 42.3733 139.886 41.28C140.552 40.1733 141.472 39.3133 142.646 38.7C143.819 38.0733 145.139 37.76 146.606 37.76C147.832 37.76 148.946 37.9667 149.946 38.38C150.946 38.7933 151.786 39.3933 152.466 40.18L150.386 42.1C149.386 41.0467 148.179 40.52 146.766 40.52C145.872 40.52 145.079 40.7067 144.386 41.08C143.692 41.4533 143.152 41.98 142.766 42.66C142.379 43.34 142.186 44.12 142.186 45C142.186 45.8667 142.379 46.64 142.766 47.32C143.152 48 143.686 48.5333 144.366 48.92C145.059 49.2933 145.846 49.48 146.726 49.48C147.659 49.48 148.499 49.28 149.246 48.88V44.78ZM157.575 42.66C157.949 42.14 158.449 41.7467 159.075 41.48C159.715 41.2133 160.449 41.08 161.275 41.08V43.96C160.929 43.9333 160.695 43.92 160.575 43.92C159.682 43.92 158.982 44.1733 158.475 44.68C157.969 45.1733 157.715 45.92 157.715 46.92V52H154.595V41.24H157.575V42.66ZM167.753 52.16C166.62 52.16 165.6 51.9267 164.693 51.46C163.8 50.98 163.1 50.32 162.593 49.48C162.086 48.64 161.833 47.6867 161.833 46.62C161.833 45.5533 162.086 44.6 162.593 43.76C163.1 42.92 163.8 42.2667 164.693 41.8C165.6 41.32 166.62 41.08 167.753 41.08C168.886 41.08 169.9 41.32 170.793 41.8C171.686 42.2667 172.386 42.92 172.893 43.76C173.4 44.6 173.653 45.5533 173.653 46.62C173.653 47.6867 173.4 48.64 172.893 49.48C172.386 50.32 171.686 50.98 170.793 51.46C169.9 51.9267 168.886 52.16 167.753 52.16ZM167.753 49.6C168.553 49.6 169.206 49.3333 169.713 48.8C170.233 48.2533 170.493 47.5267 170.493 46.62C170.493 45.7133 170.233 44.9933 169.713 44.46C169.206 43.9133 168.553 43.64 167.753 43.64C166.953 43.64 166.293 43.9133 165.773 44.46C165.253 44.9933 164.993 45.7133 164.993 46.62C164.993 47.5267 165.253 48.2533 165.773 48.8C166.293 49.3333 166.953 49.6 167.753 49.6ZM178.958 52.16C178.065 52.16 177.192 52.0533 176.338 51.84C175.485 51.6133 174.805 51.3333 174.298 51L175.338 48.76C175.818 49.0667 176.398 49.32 177.078 49.52C177.758 49.7067 178.425 49.8 179.078 49.8C180.398 49.8 181.058 49.4733 181.058 48.82C181.058 48.5133 180.878 48.2933 180.518 48.16C180.158 48.0267 179.605 47.9133 178.858 47.82C177.978 47.6867 177.252 47.5333 176.678 47.36C176.105 47.1867 175.605 46.88 175.178 46.44C174.765 46 174.558 45.3733 174.558 44.56C174.558 43.88 174.752 43.28 175.138 42.76C175.538 42.2267 176.112 41.8133 176.858 41.52C177.618 41.2267 178.512 41.08 179.538 41.08C180.298 41.08 181.052 41.1667 181.798 41.34C182.558 41.5 183.185 41.7267 183.678 42.02L182.638 44.24C181.692 43.7067 180.658 43.44 179.538 43.44C178.872 43.44 178.372 43.5333 178.038 43.72C177.705 43.9067 177.538 44.1467 177.538 44.44C177.538 44.7733 177.718 45.0067 178.078 45.14C178.438 45.2733 179.012 45.4 179.798 45.52C180.678 45.6667 181.398 45.8267 181.958 46C182.518 46.16 183.005 46.46 183.418 46.9C183.832 47.34 184.038 47.9533 184.038 48.74C184.038 49.4067 183.838 50 183.438 50.52C183.038 51.04 182.452 51.4467 181.678 51.74C180.918 52.02 180.012 52.16 178.958 52.16ZM185.563 41.24H188.683V52H185.563V41.24ZM187.123 39.74C186.55 39.74 186.083 39.5733 185.723 39.24C185.363 38.9067 185.183 38.4933 185.183 38C185.183 37.5067 185.363 37.0933 185.723 36.76C186.083 36.4267 186.55 36.26 187.123 36.26C187.697 36.26 188.163 36.42 188.523 36.74C188.883 37.06 189.063 37.46 189.063 37.94C189.063 38.46 188.883 38.8933 188.523 39.24C188.163 39.5733 187.697 39.74 187.123 39.74ZM194.159 42.66C194.532 42.14 195.032 41.7467 195.659 41.48C196.299 41.2133 197.032 41.08 197.859 41.08V43.96C197.512 43.9333 197.279 43.92 197.159 43.92C196.266 43.92 195.566 44.1733 195.059 44.68C194.552 45.1733 194.299 45.92 194.299 46.92V52H191.179V41.24H194.159V42.66Z" fill="#F2F4F7"/>
<path d="M47 25.5884L0 26.2939L1.00645 69.4118L46.3641 66.1873L47 25.5884Z" fill="#F2F4F7"/>
<path d="M48 24.5884L1 25.2939L2.00645 68.4118L47.3641 65.1873L48 24.5884Z" fill="#7F56D9"/>
<path d="M20.3495 47.5565L23.3072 47.4403L23.1199 53.1172C22.3415 53.72 21.4477 54.1944 20.4384 54.5401C19.429 54.8859 18.4181 55.0786 17.4055 55.1184C15.9533 55.1755 14.6578 54.9203 13.5189 54.3528C12.3804 53.772 11.4962 52.9484 10.8661 51.8818C10.2497 50.8014 9.96445 49.5682 10.0102 48.1823C10.0559 46.7964 10.4232 45.5442 11.1121 44.4259C11.8148 43.2936 12.7624 42.398 13.9551 41.7389C15.1482 41.0665 16.4775 40.7015 17.943 40.6439C19.1687 40.5958 20.2744 40.7586 21.26 41.1325C22.2456 41.5063 23.0652 42.073 23.7187 42.8326L21.577 44.8332C20.6125 43.8197 19.4241 43.3407 18.0119 43.3962C17.1192 43.4312 16.3204 43.6489 15.6152 44.0493C14.9101 44.4496 14.3532 44.9972 13.9444 45.692C13.5356 46.3869 13.3167 47.174 13.2877 48.0535C13.2591 48.9197 13.4267 49.6851 13.7907 50.3495C14.1546 51.014 14.67 51.5261 15.3367 51.8858C16.0172 52.2317 16.7971 52.3874 17.6764 52.3529C18.609 52.3162 19.455 52.0833 20.2142 51.6543L20.3495 47.5565ZM35.3676 46.9664L38.3253 46.8502L38.138 52.5271C37.3596 53.13 36.4658 53.6043 35.4565 53.95C34.4471 54.2958 33.4362 54.4886 32.4236 54.5284C30.9714 54.5854 29.6759 54.3302 28.537 53.7628C27.3985 53.182 26.5143 52.3583 25.8842 51.2917C25.2678 50.2113 24.9825 48.9782 25.0283 47.5922C25.074 46.2063 25.4413 44.9542 26.1302 43.8358C26.8329 42.7036 27.7805 41.8079 28.9732 41.1488C30.1663 40.4765 31.4956 40.1115 32.9611 40.0539C34.1868 40.0057 35.2925 40.1686 36.2781 40.5424C37.2637 40.9163 38.0833 41.483 38.7368 42.2425L36.5951 44.2431C35.6306 43.2296 34.4422 42.7506 33.03 42.8061C32.1373 42.8412 31.3385 43.0589 30.6333 43.4592C29.9282 43.8596 29.3713 44.4072 28.9625 45.102C28.5537 45.7968 28.3348 46.584 28.3058 47.4635C28.2772 48.3297 28.4448 49.095 28.8088 49.7594C29.1727 50.4239 29.6881 50.936 30.3548 51.2958C31.0353 51.6417 31.8152 51.7973 32.6945 51.7628C33.6271 51.7262 34.4731 51.4933 35.2323 51.0642L35.3676 46.9664Z" fill="#F2F4F7"/>
</svg>
