<svg width="48" height="45" viewBox="0 0 48 45" fill="none" xmlns="http://www.w3.org/2000/svg">
<path d="M47 1L0 1.70553L1.00645 44.8234L46.3641 41.5989L47 1Z" fill="#F2F4F7"/>
<path d="M48 0L1 0.705527L2.00645 43.8234L47.3641 40.5989L48 0Z" fill="#7F56D9"/>
<path d="M20.3495 22.9681L23.3072 22.8519L23.1199 28.5288C22.3415 29.1317 21.4477 29.606 20.4384 29.9517C19.429 30.2975 18.4181 30.4903 17.4055 30.53C15.9533 30.5871 14.6578 30.3319 13.5189 29.7644C12.3804 29.1837 11.4962 28.36 10.8661 27.2934C10.2497 26.213 9.96445 24.9798 10.0102 23.5939C10.0559 22.208 10.4232 20.9559 11.1121 19.8375C11.8148 18.7052 12.7624 17.8096 13.9551 17.1505C15.1482 16.4781 16.4775 16.1132 17.943 16.0556C19.1687 16.0074 20.2744 16.1703 21.26 16.5441C22.2456 16.918 23.0652 17.4846 23.7187 18.2442L21.577 20.2448C20.6125 19.2313 19.4241 18.7523 18.0119 18.8078C17.1192 18.8429 16.3204 19.0606 15.6152 19.4609C14.9101 19.8613 14.3532 20.4089 13.9444 21.1037C13.5356 21.7985 13.3167 22.5856 13.2877 23.4652C13.2591 24.3314 13.4267 25.0967 13.7907 25.7611C14.1546 26.4256 14.67 26.9377 15.3367 27.2974C16.0172 27.6434 16.7971 27.799 17.6764 27.7645C18.609 27.7278 19.455 27.495 20.2142 27.0659L20.3495 22.9681ZM35.3676 22.378L38.3253 22.2618L38.138 27.9387C37.3596 28.5416 36.4658 29.0159 35.4565 29.3617C34.4471 29.7074 33.4362 29.9002 32.4236 29.94C30.9714 29.997 29.6759 29.7418 28.537 29.1744C27.3985 28.5936 26.5143 27.7699 25.8842 26.7034C25.2678 25.6229 24.9825 24.3898 25.0283 23.0039C25.074 21.618 25.4413 20.3658 26.1302 19.2474C26.8329 18.1152 27.7805 17.2195 28.9732 16.5605C30.1663 15.8881 31.4956 15.5231 32.9611 15.4655C34.1868 15.4173 35.2925 15.5802 36.2781 15.954C37.2637 16.3279 38.0833 16.8946 38.7368 17.6541L36.5951 19.6547C35.6306 18.6412 34.4422 18.1622 33.03 18.2177C32.1373 18.2528 31.3385 18.4705 30.6333 18.8709C29.9282 19.2712 29.3713 19.8188 28.9625 20.5136C28.5537 21.2084 28.3348 21.9956 28.3058 22.8751C28.2772 23.7413 28.4448 24.5066 28.8088 25.1711C29.1727 25.8355 29.6881 26.3476 30.3548 26.7074C31.0353 27.0533 31.8152 27.209 32.6945 27.1744C33.6271 27.1378 34.4731 26.9049 35.2323 26.4758L35.3676 22.378Z" fill="#F2F4F7"/>
</svg>
