<svg width="694" height="523" viewBox="0 0 694 523" fill="none" xmlns="http://www.w3.org/2000/svg">
<g clip-path="url(#clip0_31_102213)">
<path opacity="0.18" d="M595.009 251.571C586.534 290.503 578.054 329.408 569.569 368.285C566.255 383.482 562.914 398.775 556.951 413.102C552.624 423.492 546.928 433.257 540.014 442.138C519.083 469.137 487.612 488.069 453.697 492.686C432.073 495.633 409.974 493.148 388.392 496.367C361.145 500.441 335.99 513.37 309.083 519.251C270.672 527.657 230.006 521.193 193.631 506.199C164.986 494.398 115.966 473.184 96.8558 442.166C93.0726 436.221 90.5272 429.574 89.3718 422.623C79.864 361.373 91.6401 286.216 111.919 228.253C151.308 115.532 253.979 27.3373 371.346 5.25474C415.856 -3.11109 462.933 -2.35056 505.202 13.9058C547.47 30.1621 584.32 63.1093 599.41 105.808C615.859 152.268 605.509 203.413 595.009 251.571Z" fill="#7F56D9"/>
<path d="M540.013 442.168C519.083 469.167 487.612 488.099 453.696 492.716C432.073 495.663 409.974 493.178 388.391 496.396C361.145 500.471 335.99 513.4 309.083 519.28C270.671 527.687 230.005 521.222 193.631 506.229C164.986 494.4 115.966 473.187 96.8555 442.168H540.013Z" fill="#7F56D9"/>
<path d="M344.128 450.029C300.392 439.898 254.782 444.053 210.095 448.25C206.02 448.63 201.796 449.065 198.319 451.211C194.842 453.356 192.411 457.797 193.891 461.613C195.249 464.968 198.862 466.679 202.285 467.82C224.017 475.167 247.597 473.415 270.51 472.37C344.753 469.001 419.918 473.999 492.707 458.666C500.123 457.105 508.056 455 512.823 449.16C499.173 442.22 482.711 444.121 468.001 448.331C453.291 452.541 439.056 458.938 423.844 460.622C415.3 461.559 412.434 452.596 405.358 449.35C399.925 446.851 396.38 447.476 390.811 449.16C373.548 454.348 361.989 454.171 344.128 450.029Z" fill="url(#paint0_linear_31_102213)"/>
<path d="M290.666 442.314C288.582 442.302 286.54 441.725 284.758 440.645C282.975 439.564 281.519 438.021 280.544 436.18C279.568 434.338 279.11 432.266 279.219 430.185C279.327 428.104 279.997 426.091 281.159 424.36V424.36C282.27 422.704 283.791 421.365 285.575 420.473C287.358 419.58 289.342 419.166 291.334 419.269C293.325 419.373 295.256 419.991 296.937 421.064C298.618 422.136 299.993 423.626 300.926 425.389C301.859 427.151 302.319 429.125 302.261 431.118C302.204 433.111 301.63 435.055 300.596 436.76C299.563 438.465 298.105 439.874 296.364 440.847C294.624 441.82 292.661 442.326 290.666 442.314ZM286.741 428.149C286.219 428.927 285.94 429.843 285.938 430.78C285.936 431.716 286.212 432.633 286.731 433.413C287.25 434.193 287.988 434.802 288.853 435.163C289.718 435.524 290.67 435.62 291.59 435.44C292.509 435.26 293.355 434.811 294.019 434.151C294.684 433.491 295.138 432.648 295.324 431.73C295.51 430.812 295.42 429.859 295.065 428.992C294.71 428.125 294.106 427.383 293.329 426.859C292.283 426.159 291.003 425.901 289.768 426.143C288.533 426.385 287.445 427.106 286.741 428.149Z" fill="#2E2E3F"/>
<path d="M206.171 442.314C204.084 442.306 202.04 441.732 200.254 440.653C198.469 439.574 197.01 438.03 196.034 436.187C195.058 434.343 194.601 432.269 194.712 430.186C194.822 428.104 195.497 426.09 196.663 424.36V424.36C197.774 422.704 199.295 421.365 201.079 420.473C202.862 419.58 204.846 419.166 206.838 419.269C208.829 419.373 210.76 419.991 212.441 421.064C214.122 422.136 215.497 423.626 216.43 425.389C217.363 427.151 217.823 429.125 217.765 431.118C217.708 433.111 217.134 435.055 216.1 436.76C215.067 438.465 213.609 439.874 211.868 440.847C210.128 441.82 208.165 442.326 206.171 442.314V442.314ZM202.259 428.149C201.735 428.927 201.454 429.843 201.451 430.781C201.449 431.718 201.724 432.636 202.243 433.417C202.762 434.198 203.5 434.808 204.366 435.169C205.231 435.53 206.184 435.627 207.105 435.446C208.025 435.265 208.871 434.816 209.536 434.154C210.2 433.493 210.654 432.649 210.839 431.73C211.024 430.811 210.932 429.857 210.575 428.99C210.218 428.123 209.611 427.381 208.833 426.859C207.79 426.159 206.511 425.902 205.279 426.144C204.046 426.386 202.96 427.107 202.259 428.149V428.149Z" fill="#2E2E3F"/>
<path d="M384.928 202.939C384.519 204.281 383.919 205.557 383.148 206.728C381.626 208.539 379.7 209.967 377.525 210.898C368.914 215.311 355.793 220.065 348.486 226.448C347.598 227.153 346.864 228.031 346.326 229.028C345.28 231.296 346.326 233.917 347.29 236.199C347.724 237.49 348.492 238.643 349.518 239.54C351.379 240.898 353.959 240.314 356.173 239.662C364.664 237.131 373.016 234.153 381.192 230.739C385.767 228.895 390.21 226.739 394.49 224.288C396.206 223.406 397.697 222.142 398.85 220.594C399.659 219.2 400.198 217.666 400.439 216.072C401.984 207.841 403.023 199.523 403.549 191.165L405.179 171.554C405.505 167.778 416.996 154.564 413.532 151.97C406.741 146.891 396.867 160.716 395.318 163.555C390.945 171.554 386.625 198.104 384.928 202.939Z" fill="#7F56D9"/>
<path d="M384.928 202.939C384.519 204.281 383.919 205.557 383.148 206.728C381.626 208.539 379.7 209.967 377.525 210.898C368.914 215.311 355.793 220.065 348.486 226.448C347.598 227.153 346.864 228.031 346.326 229.028C345.28 231.296 346.326 233.917 347.29 236.199C347.724 237.49 348.492 238.643 349.518 239.54C351.379 240.898 353.959 240.314 356.173 239.662C364.664 237.131 373.016 234.153 381.192 230.739C385.767 228.895 390.21 226.739 394.49 224.288C396.206 223.406 397.697 222.142 398.85 220.594C399.659 219.2 400.198 217.666 400.439 216.072C401.984 207.841 403.023 199.523 403.549 191.165L405.179 171.554C405.505 167.778 416.996 154.564 413.532 151.97C406.741 146.891 396.867 160.716 395.318 163.555C390.945 171.554 386.625 198.104 384.928 202.939Z" fill="url(#paint1_linear_31_102213)"/>
<path d="M490.412 415.346C491.51 417.099 492.081 419.131 492.056 421.199C491.928 421.976 491.636 422.717 491.201 423.372C490.766 424.028 490.196 424.584 489.53 425.004C488.864 425.424 488.116 425.697 487.336 425.807C486.557 425.917 485.763 425.86 485.007 425.64C483.776 425.131 482.659 424.383 481.72 423.44C470.351 413.336 461.346 400.882 453.196 387.98C450.996 384.476 448.863 380.932 446.989 377.251C440.656 364.779 437.33 350.998 437.277 337.011C437.192 336.209 437.389 335.402 437.834 334.729C438.302 334.256 438.904 333.938 439.559 333.819C445.183 332.244 453.943 332.095 458.914 335.762C464.497 339.836 463.152 352.67 462.908 358.51C462.624 361.001 462.874 363.524 463.641 365.911C464.659 367.954 466.04 369.794 467.716 371.343C479.112 383.58 483.064 400.542 490.412 415.346Z" fill="#F3BD8F"/>
<path d="M419.919 387.491C421.096 403.356 419.002 419.295 413.766 434.318C413.447 435.677 412.716 436.906 411.674 437.835C410.968 438.269 410.16 438.508 409.332 438.527C408.504 438.547 407.685 438.345 406.961 437.944C403.28 436.151 401.99 432.24 401.365 428.437C398.633 411.656 397.333 394.673 397.48 377.672C397.48 369.646 397.711 362 397.086 354.014C396.461 345.798 395.538 337.595 395.538 329.337C395.385 328.519 395.54 327.672 395.972 326.961C396.315 326.646 396.722 326.411 397.166 326.273C397.61 326.134 398.079 326.095 398.54 326.16C404.434 326.16 415.192 322.764 419.783 326.513C425.827 331.443 416.156 353.118 415.192 359.392C413.575 369.863 418.126 372.973 419.47 383.308C419.647 384.775 419.796 386.133 419.919 387.491Z" fill="#F5BD8D"/>
<path d="M390.242 329.432C390.103 331.023 390.5 332.615 391.369 333.955C392.273 334.889 393.429 335.54 394.697 335.829C401.162 337.839 407.981 338.26 414.731 338.681C416.796 338.803 419.078 338.857 420.667 337.554C421.651 336.598 422.384 335.412 422.799 334.104L430.297 315.756C429.736 322.232 429.568 328.736 429.794 335.231C429.685 336.624 430.097 338.008 430.949 339.116C432.04 339.957 433.405 340.363 434.779 340.256C445.185 340.648 455.602 339.892 465.842 338.002C469.808 323.375 469.917 307.907 467.948 292.886C467.173 287.033 466.019 281.071 462.908 276.046C462.148 274.672 461.067 273.503 459.757 272.637C457.797 271.697 455.623 271.289 453.455 271.456C437.726 271.293 421.753 270.926 406.12 273.153C401.244 273.846 398.69 275.367 396.992 280.134C394.546 287.645 392.84 295.378 391.899 303.221C390.652 311.9 390.098 320.665 390.242 329.432Z" fill="#2E2E3F"/>
<path d="M465.841 338L463.396 338.421C453.943 340.002 444.354 340.616 434.777 340.255C433.404 340.362 432.039 339.955 430.947 339.114C430.095 338.007 429.684 336.623 429.793 335.23C429.582 329.188 429.718 323.139 430.2 317.113C430.2 316.964 430.2 316.801 430.2 316.651C430.2 316.502 430.2 316.054 430.268 315.755C427.769 321.853 425.283 327.978 422.784 334.076C422.369 335.384 421.636 336.569 420.652 337.525C419.062 338.883 416.781 338.775 414.716 338.652H413.779C407.341 338.245 400.862 337.77 394.763 335.855C393.494 335.571 392.336 334.919 391.436 333.98C390.567 332.641 390.17 331.049 390.308 329.458C390.16 320.668 390.715 311.881 391.965 303.179C392.905 295.373 394.602 287.677 397.032 280.2C398.729 275.433 401.283 273.912 406.159 273.22C421.793 270.992 437.766 271.359 453.494 271.522C455.456 271.409 457.419 271.714 459.253 272.418C459.441 272.5 459.623 272.595 459.797 272.703C461.106 273.569 462.187 274.739 462.948 276.112C466.058 281.137 467.213 287.099 467.987 292.953C469.943 307.905 469.807 323.374 465.841 338Z" fill="url(#paint2_linear_31_102213)"/>
<path d="M465.84 338.002L463.395 338.423C462.812 338.122 462.246 337.791 461.697 337.432C460.352 336.689 459.22 335.614 458.41 334.308C457.817 332.986 457.529 331.547 457.568 330.098C457.12 317.984 459.429 305.652 456.97 293.823C456.087 289.559 454.322 285.675 453.059 281.601C451.904 277.839 454.485 275.598 457.514 273.452C458.048 273.054 458.616 272.705 459.211 272.406C459.399 272.488 459.581 272.583 459.755 272.691C461.065 273.557 462.146 274.727 462.906 276.1C466.016 281.125 467.171 287.087 467.945 292.941C469.942 307.907 469.806 323.375 465.84 338.002Z" fill="url(#paint3_linear_31_102213)"/>
<path d="M430.281 315.784C427.782 321.882 425.296 328.007 422.797 334.105C422.382 335.413 421.649 336.598 420.664 337.554C419.075 338.912 416.793 338.804 414.729 338.681H413.792C413.44 338.493 413.108 338.27 412.8 338.016C411.649 337.042 410.829 335.735 410.455 334.275C410.08 332.815 410.169 331.275 410.708 329.867C411.373 328.514 412.213 327.253 413.207 326.119C419.129 318.527 422.362 309.252 425.513 300.152C427.208 302.113 428.5 304.388 429.316 306.848C430.191 309.74 430.519 312.771 430.281 315.784Z" fill="url(#paint4_linear_31_102213)"/>
<path d="M427.226 140.32C427.162 142.771 426.194 145.112 424.509 146.893C422.01 149.147 418.221 149.011 415.083 150.274C414.687 150.405 414.329 150.629 414.037 150.926C413.805 151.2 413.642 151.526 413.562 151.877C413.159 153.513 413.288 155.235 413.928 156.793C414.887 159.126 416.343 161.221 418.197 162.931C420.051 164.642 422.256 165.926 424.659 166.694C429.489 168.206 434.606 168.564 439.599 167.739C441.256 167.643 442.871 167.179 444.326 166.381C445.869 165.206 447.097 163.666 447.898 161.9C448.869 160.287 449.52 158.503 449.814 156.644C449.948 155.708 449.835 154.754 449.487 153.875C449.14 152.996 448.568 152.223 447.83 151.632C447.137 151.212 446.399 150.87 445.63 150.614C444.421 150.15 443.261 149.568 442.167 148.875C441.043 148.3 440.169 147.334 439.708 146.159C439.518 145.167 439.56 144.145 439.83 143.172C440.449 139.868 440.449 136.479 439.83 133.176C439.683 132.197 439.38 131.248 438.934 130.365C438.515 129.613 437.93 128.967 437.224 128.476C436.518 127.985 435.709 127.662 434.858 127.531C434.008 127.4 433.139 127.465 432.318 127.72C431.496 127.976 430.744 128.416 430.119 129.007C426.913 131.927 427.606 136.544 427.226 140.32Z" fill="#F3BD8F"/>
<path d="M412.189 122.758C412.006 125.01 412.194 127.276 412.746 129.467C414.349 134.668 419.85 138.023 425.296 138.24C427.084 138.38 428.875 138.038 430.485 137.249C431.407 136.723 432.256 136.079 433.011 135.334C436.814 131.857 440.319 127.701 441.473 122.676C441.868 120.77 442.032 118.823 441.962 116.877C442.011 114.012 441.513 111.164 440.495 108.484C439.48 106.117 437.869 104.053 435.82 102.492C433.771 100.931 431.353 99.9263 428.801 99.5753C423.544 98.9099 418.614 101.572 414.77 104.872C412.841 106.529 413.127 109.788 412.882 112.273C412.542 115.737 412.312 119.254 412.189 122.758Z" fill="#F3BD8F"/>
<path d="M412.841 93.7877C411.374 96.3002 410.382 99.2201 408.114 101.026C407.177 101.76 406.077 102.289 405.207 103.091C404.089 104.27 403.438 105.815 403.373 107.438C403.308 109.062 403.834 110.653 404.854 111.918C405.926 113.141 407.317 114.042 408.871 114.522C410.425 115.001 412.081 115.04 413.656 114.634C416.811 113.754 419.508 111.698 421.194 108.89C422.321 107.124 423.327 104.978 425.269 104.326C426.13 104.131 427.025 104.141 427.882 104.356C428.738 104.57 429.532 104.984 430.199 105.562C431.626 106.594 432.821 107.953 434.274 108.876C435.142 109.321 435.973 109.834 436.76 110.411C439.096 112.434 438.743 116.088 438.199 119.13C439.177 119.428 439.368 117.676 440.223 117.12C441.079 116.563 442.07 117.378 442.22 118.288C442.27 119.207 442.006 120.117 441.473 120.868C439.245 124.766 436.61 128.596 435.863 133.009C435.712 133.597 435.741 134.217 435.945 134.788C436.394 135.468 437.082 135.953 437.874 136.146C439.232 136.735 440.698 137.036 442.179 137.029C442.919 137.017 443.646 136.83 444.3 136.483C444.954 136.136 445.517 135.639 445.942 135.033C446.361 134.246 446.615 133.382 446.689 132.493C446.873 129.548 447.273 126.621 447.884 123.734C449.527 118.057 454.403 113.113 453.684 107.26C453.156 104.614 452.047 102.119 450.437 99.9534C449.497 98.3082 448.347 96.7925 447.015 95.4446C445.705 94.3234 444.264 93.3657 442.722 92.5926C439.542 90.6961 436.06 89.3593 432.427 88.6405C428.121 87.9887 424.277 89.3875 420.067 89.5912C416.753 89.7406 414.688 90.5419 412.841 93.7877Z" fill="#2E2E3F"/>
<path d="M462.107 277.279C459.673 278.972 456.887 280.091 453.958 280.552C438.339 284.015 422.148 283.988 406.541 280.471C403.281 279.724 399.655 278.529 398.242 275.486C397.609 273.816 397.372 272.022 397.549 270.244C397.921 253.458 398.292 236.668 398.663 219.873C399.084 200.792 399.505 181.643 402.303 162.765C403.128 158.863 404.676 155.151 406.867 151.819C408.687 149.334 416.932 150.664 423.818 146.21C425.706 144.988 421.604 151.303 427.77 153.91C434.168 156.627 441.353 143.901 445.238 149.008C447.424 151.86 454.379 149.741 456.579 152.579C458.345 154.861 459.431 159.682 460.124 165.495C461.591 177.84 461.224 194.599 461.482 200.697C462.637 222.032 460.844 249.248 467.893 266.863C469.51 270.692 465.285 274.767 462.107 277.279Z" fill="#7F56D9"/>
<path d="M462.105 277.28C459.671 278.973 456.885 280.092 453.956 280.553C450.055 281.417 446.11 282.065 442.139 282.495L441.025 282.346C443.932 272.839 444.068 262.844 443.986 252.957C443.986 247.524 443.823 242.024 443.714 236.564C443.646 233.115 443.524 229.489 441.745 226.542C439.966 223.595 435.918 221.721 432.957 223.5C438.05 220.43 442.22 207.447 444.312 202.123C447.321 194.411 449.426 186.377 450.587 178.18C451.375 172.558 451.076 162.671 459.687 165.333L460.163 165.496C461.63 177.841 461.263 194.6 461.521 200.697C462.676 222.033 460.883 249.249 467.932 266.863C469.508 270.693 465.283 274.768 462.105 277.28Z" fill="url(#paint5_linear_31_102213)"/>
<path d="M413.44 429.999C413.932 430.041 414.389 430.269 414.717 430.637C414.924 431.058 415.004 431.53 414.948 431.996C414.948 434.712 416.673 437.17 416.578 439.859C416.51 442.263 415.016 444.517 415.22 446.921C415.22 447.396 415.342 447.953 415.002 448.279C414.781 448.461 414.512 448.574 414.228 448.605C407.41 449.909 400.559 451.045 393.678 452.014C392.408 452.352 391.057 452.206 389.888 451.606C389.359 451.202 388.943 450.669 388.679 450.058C386.818 446.269 388.476 441.624 391.002 438.243C397.182 429.918 403.145 427.921 413.44 429.999Z" fill="#2E2E3F"/>
<path d="M499.269 428.939C498.789 431.105 497.557 433.029 495.792 434.372C491.419 438.411 486.419 441.714 480.987 444.15C479.892 444.764 478.637 445.029 477.387 444.911C476.44 444.637 475.609 444.059 475.022 443.266C474.436 442.474 474.126 441.51 474.141 440.524C474.208 438.552 474.719 436.621 475.635 434.874C478.257 428.817 480.077 419.935 487.072 417.532C493.184 415.481 499.921 422.91 499.269 428.939Z" fill="#2E2E3F"/>
<path d="M413.44 429.999C413.932 430.041 414.389 430.269 414.717 430.637C414.924 431.058 415.004 431.53 414.948 431.996C414.948 434.712 416.673 437.17 416.578 439.859C416.51 442.263 415.016 444.517 415.22 446.921C415.22 447.396 415.342 447.953 415.002 448.279C414.781 448.461 414.512 448.574 414.228 448.605C407.41 449.909 400.559 451.045 393.678 452.014C392.408 452.352 391.057 452.206 389.888 451.606C389.359 451.202 388.943 450.669 388.679 450.058C386.818 446.269 388.476 441.624 391.002 438.243C397.182 429.918 403.145 427.921 413.44 429.999Z" fill="url(#paint6_linear_31_102213)"/>
<path d="M495.791 434.398C491.418 438.438 486.418 441.74 480.986 444.177C479.892 444.79 478.636 445.056 477.387 444.937" fill="url(#paint7_linear_31_102213)"/>
<path d="M448.782 201.431C449.017 203.133 448.835 204.866 448.252 206.483C447.274 208.724 445.006 210.082 442.819 211.29L394.642 238.547C392.387 239.824 389.969 241.263 389.005 243.681C386.886 249.113 393.528 253.989 399.3 254.423C405.345 254.871 411.294 253.065 417.026 251.069C435.133 244.826 452.621 236.915 469.264 227.438C471.321 226.674 473.045 225.214 474.137 223.311C475.229 221.408 475.619 219.182 475.241 217.021C475.288 203.725 474.271 190.445 472.198 177.311C471.071 170.127 469.482 162.616 464.633 157.171C457.461 149.022 444.367 148.778 443.24 160.715C441.99 174.269 447.872 188.094 448.782 201.431Z" fill="#7F56D9"/>
<path d="M448.782 201.431C449.017 203.133 448.835 204.866 448.252 206.483C447.274 208.724 445.006 210.082 442.819 211.29L394.642 238.547C392.387 239.824 389.969 241.263 389.005 243.681C386.886 249.113 393.528 253.989 399.3 254.423C405.345 254.871 411.294 253.065 417.026 251.069C435.133 244.826 452.621 236.915 469.264 227.438C471.321 226.674 473.045 225.214 474.137 223.311C475.229 221.408 475.619 219.182 475.241 217.021C475.288 203.725 474.271 190.445 472.198 177.311C471.071 170.127 469.482 162.616 464.633 157.171C457.461 149.022 444.367 148.778 443.24 160.715C441.99 174.269 447.872 188.094 448.782 201.431Z" fill="url(#paint8_linear_31_102213)"/>
<path d="M382.812 243.072C379.336 243.061 375.986 244.372 373.44 246.739C372.199 247.947 371.363 249.509 371.047 251.212C370.731 252.914 370.95 254.672 371.674 256.245C372.189 257.299 373.088 258.115 374.187 258.527C375.156 258.794 376.184 258.761 377.134 258.432C379.851 257.603 382.092 255.498 384.754 254.357C385.399 254.041 386.134 253.959 386.832 254.127C387.281 254.355 387.708 254.623 388.109 254.928C388.668 255.233 389.291 255.404 389.928 255.425C390.565 255.446 391.198 255.318 391.776 255.05C392.927 254.493 393.897 253.622 394.574 252.538C395.557 251.176 396.038 249.515 395.932 247.839C395.661 245.258 394.167 244.43 391.939 244.172C388.883 243.846 385.949 242.963 382.812 243.072Z" fill="#F3BD8F"/>
<path d="M338.058 234.69C336.774 236.266 335.893 238.13 335.491 240.122C335.277 241.065 335.31 242.048 335.586 242.974C335.978 243.876 336.632 244.64 337.462 245.168C338.292 245.695 339.261 245.963 340.245 245.935C342.215 245.852 344.129 245.258 345.8 244.21C348.904 242.421 351.869 240.401 354.669 238.167C355.25 237.771 355.767 237.291 356.204 236.741C356.724 235.892 356.939 234.891 356.813 233.903C356.687 232.915 356.228 232 355.511 231.308C350.92 226.704 341.508 230.412 338.058 234.69Z" fill="#F3BD8F"/>
<path d="M294.512 391.564H180.038L135.609 270.559H328.971L294.512 391.564ZM184.778 384.774H289.364L319.965 277.322H145.334L184.778 384.774Z" fill="#7F56D9"/>
<path d="M339.687 391.564H225.2L180.785 270.559H377.46L339.687 391.564ZM229.968 384.774H334.553L365.155 277.322H190.578L229.968 384.774Z" fill="#7F56D9"/>
<path d="M340.366 391.631H286.145L310.43 306.003L330.478 243.816L385.161 244.55L340.366 391.631ZM295.123 384.84H335.341L376.088 251.218L335.449 250.675L316.895 307.973L295.123 384.84Z" fill="#7F56D9"/>
<path d="M340.256 425.448H207.527V418.657H333.465V388.195H340.256V425.448Z" fill="#7F56D9"/>
<path d="M295.828 425.448H187.766V418.657H289.037V388.195H295.828V425.448Z" fill="#7F56D9"/>
<path d="M318.36 442.314C316.079 442.314 313.849 441.638 311.953 440.371C310.057 439.104 308.579 437.303 307.706 435.196C306.833 433.09 306.605 430.771 307.05 428.535C307.495 426.298 308.593 424.244 310.206 422.631C311.818 421.019 313.873 419.92 316.11 419.475C318.347 419.031 320.666 419.259 322.773 420.132C324.88 421.004 326.681 422.482 327.948 424.378C329.215 426.274 329.891 428.504 329.891 430.784C329.891 433.842 328.676 436.775 326.514 438.937C324.351 441.099 321.418 442.314 318.36 442.314V442.314ZM318.36 426.017C317.422 426.017 316.506 426.295 315.726 426.816C314.947 427.337 314.339 428.077 313.98 428.943C313.621 429.809 313.528 430.762 313.71 431.682C313.893 432.601 314.345 433.446 315.008 434.108C315.671 434.771 316.515 435.223 317.435 435.406C318.354 435.588 319.308 435.495 320.174 435.136C321.04 434.777 321.78 434.17 322.301 433.39C322.822 432.611 323.1 431.694 323.1 430.757C323.093 429.505 322.59 428.306 321.702 427.423C320.814 426.54 319.612 426.044 318.36 426.044V426.017Z" fill="#2E2E3F"/>
<path d="M235.983 442.314C233.897 442.306 231.852 441.732 230.067 440.653C228.282 439.574 226.823 438.03 225.847 436.187C224.871 434.343 224.413 432.269 224.524 430.186C224.635 428.104 225.309 426.09 226.475 424.36V424.36C227.586 422.704 229.108 421.365 230.891 420.473C232.675 419.58 234.659 419.166 236.65 419.269C238.642 419.373 240.573 419.991 242.254 421.064C243.935 422.136 245.309 423.626 246.242 425.389C247.176 427.151 247.636 429.125 247.578 431.118C247.52 433.111 246.947 435.055 245.913 436.76C244.879 438.465 243.421 439.874 241.681 440.847C239.94 441.82 237.977 442.326 235.983 442.314ZM232.058 428.149C231.534 428.927 231.253 429.843 231.25 430.781C231.248 431.718 231.523 432.636 232.042 433.417C232.56 434.198 233.299 434.808 234.165 435.169C235.03 435.53 235.983 435.627 236.904 435.446C237.824 435.265 238.67 434.816 239.335 434.154C239.999 433.493 240.453 432.649 240.638 431.73C240.823 430.811 240.731 429.857 240.374 428.99C240.017 428.123 239.41 427.381 238.632 426.859C237.587 426.163 236.31 425.908 235.079 426.149C233.847 426.391 232.761 427.11 232.058 428.149V428.149Z" fill="#2E2E3F"/>
<path d="M365.481 294.812H150.809V299.933H365.481V294.812Z" fill="#7F56D9"/>
<path d="M359.87 312.02H155.398V317.14H359.87V312.02Z" fill="#7F56D9"/>
<path d="M354.261 329.227H162.027V334.347H354.261V329.227Z" fill="#7F56D9"/>
<path d="M348.652 346.434H168.656V351.554H348.652V346.434Z" fill="#7F56D9"/>
<path d="M343.039 363.641H175.281V368.761H343.039V363.641Z" fill="#7F56D9"/>
<path d="M164.42 272.546L159.609 274.301L200.903 387.495L205.714 385.741L164.42 272.546Z" fill="#7F56D9"/>
<path d="M224.135 272.69L219.223 274.137L252.111 385.797L257.023 384.35L224.135 272.69Z" fill="#7F56D9"/>
<path d="M274.344 271.805L269.227 271.977L273.047 385.924L278.165 385.753L274.344 271.805Z" fill="#7F56D9"/>
<path d="M333.191 274.942L298.793 386.602L303.687 388.109L338.084 276.449L333.191 274.942Z" fill="#7F56D9"/>
</g>
<defs>
<linearGradient id="paint0_linear_31_102213" x1="354.926" y1="391.237" x2="351.11" y2="525.063" gradientUnits="userSpaceOnUse">
<stop offset="0.01"/>
<stop offset="0.13" stop-opacity="0.69"/>
<stop offset="1" stop-opacity="0"/>
</linearGradient>
<linearGradient id="paint1_linear_31_102213" x1="398.89" y1="225.511" x2="387.429" y2="206.007" gradientUnits="userSpaceOnUse">
<stop offset="0.01"/>
<stop offset="0.13" stop-opacity="0.69"/>
<stop offset="1" stop-opacity="0"/>
</linearGradient>
<linearGradient id="paint2_linear_31_102213" x1="448.509" y1="271.386" x2="415.375" y2="344.291" gradientUnits="userSpaceOnUse">
<stop offset="0.01"/>
<stop offset="0.13" stop-opacity="0.69"/>
<stop offset="1" stop-opacity="0"/>
</linearGradient>
<linearGradient id="paint3_linear_31_102213" x1="452.773" y1="305.381" x2="469.208" y2="305.381" gradientUnits="userSpaceOnUse">
<stop offset="0.01"/>
<stop offset="0.13" stop-opacity="0.69"/>
<stop offset="1" stop-opacity="0"/>
</linearGradient>
<linearGradient id="paint4_linear_31_102213" x1="413.275" y1="313.774" x2="446.196" y2="343.058" gradientUnits="userSpaceOnUse">
<stop offset="0.01"/>
<stop offset="0.13" stop-opacity="0.69"/>
<stop offset="1" stop-opacity="0"/>
</linearGradient>
<linearGradient id="paint5_linear_31_102213" x1="520.564" y1="227.683" x2="366.416" y2="219.002" gradientUnits="userSpaceOnUse">
<stop offset="0.01"/>
<stop offset="0.13" stop-opacity="0.69"/>
<stop offset="1" stop-opacity="0"/>
</linearGradient>
<linearGradient id="paint6_linear_31_102213" x1="387.878" y1="440.674" x2="416.591" y2="440.674" gradientUnits="userSpaceOnUse">
<stop offset="0.01"/>
<stop offset="0.13" stop-opacity="0.69"/>
<stop offset="1" stop-opacity="0"/>
</linearGradient>
<linearGradient id="paint7_linear_31_102213" x1="477.387" y1="439.695" x2="495.791" y2="439.695" gradientUnits="userSpaceOnUse">
<stop offset="0.01"/>
<stop offset="0.13" stop-opacity="0.69"/>
<stop offset="1" stop-opacity="0"/>
</linearGradient>
<linearGradient id="paint8_linear_31_102213" x1="453.033" y1="252.536" x2="428.942" y2="205.883" gradientUnits="userSpaceOnUse">
<stop offset="0.01"/>
<stop offset="0.13" stop-opacity="0.69"/>
<stop offset="1" stop-opacity="0"/>
</linearGradient>
<clipPath id="clip0_31_102213">
<rect width="694" height="523" fill="white"/>
</clipPath>
</defs>
</svg>
